<svg xmlns="http://www.w3.org/2000/svg" id="svg8" version="1.1" viewBox="0 0 300 300"><defs id="defs2"></defs><metadata id="metadata5"></metadata><g id="layer1"><path transform="matrix(0.93105991,0,0,1.065063,0.94734349,-20.353064)" d="M 182.94047,331.10715 99.607632,345.20153 16.274791,359.29592 45.73512,280.08036 75.195447,200.86482 129.06796,265.98599 Z" id="path50" style="fill:#000000;fill-opacity:0;stroke-width:0.264583"></path><path transform="matrix(0.93105991,0,0,1.065063,0.41817682,-20.353064)" d="M 161.77382,160.26191 82.275005,160.04747 2.7761947,159.83303 42.711309,91.092262 82.646424,22.351492 122.21012,91.306701 Z" id="path54" style="fill:#e5e2d9;fill-opacity:1;stroke-width:0.264583"></path><path transform="matrix(-0.93105991,0,0,-1.065063,0.41817682,-20.353064)" style="fill:#a6bfbc;fill-opacity:1;stroke-width:0.264583" id="path54-5" d="m -2.776195,-159.83302 -79.49881,-0.21444 -79.498815,-0.21444 39.93512,-68.74077 39.935113,-68.74077 39.563696,68.95521 z"></path><path transform="matrix(0.93105991,0,0,1.065063,0.41817682,-20.353064)" d="m 240.9012,298.17232 -79.49881,-0.21444 -79.498807,-0.21444 39.935117,-68.74077 39.93511,-68.74077 39.5637,68.95521 z" id="path54-5-5" style="fill:#4d7e80;fill-opacity:1;stroke-width:0.264583"></path><path transform="matrix(-0.93105991,0,0,-1.065063,0.41817682,-20.353064)" style="fill:#001519;fill-opacity:1;stroke-width:0.264583" id="path54-5-5-8" d="m -161.7738,-160.2619 -79.49881,-0.21444 -79.49881,-0.21444 39.93511,-68.74077 39.93512,-68.74077 39.56369,68.95521 z"></path></g></svg>