<svg xmlns="http://www.w3.org/2000/svg" width="210" height="210" viewBox="0 0 21000 21000" style="image-rendering:optimizeQuality;shape-rendering:geometricPrecision;text-rendering:geometricPrecision">
  <defs>
    <style type="text/css">
      
    .fil0 {fill:none}
    .fil10 {fill:#FEFEFE}
    .fil5 {fill:#FFF8AF}
    .fil4 {fill:#FFDD21}
    .fil3 {fill:#FFCC29}
    .fil9 {fill:#E5AA2D}
    .fil11 {fill:#F8AC92}
    .fil6 {fill:#91D8F7}
    .fil7 {fill:#85C5E2}
    .fil8 {fill:#201E1E}
    .fil1 {fill:#FFCC29;fill-rule:nonzero}
    .fil2 {fill:black;fill-rule:nonzero}
   
    </style>
  </defs>
    <rect class="fil0" />
    <path class="fil1" d="M13006.6 12527l1559.9 0c9.9 0 23.3 10.9 31.5 25.2l780.6 1352c7.3 12.6 8.9 24.6 4.9 30.8l-780.3 1351.6c-2.1 3.6-5.5 5-9.8 4.6l-1559.8 0c-9.9 0-23.2-10.9-31.5-25.1l-780.6-1352c-7.3-12.6-8.9-24.6-4.9-30.8l780.3-1351.6c2.1-3.5 5.6-5 9.8-4.6zm2449.7 1420.8l1559.9 0c9.9 0 23.3 10.9 31.5 25.2l780.6 1352c7.3 12.6 8.9 24.6 4.9 30.8l-780.3 1351.6c-2.1 3.6-5.5 5-9.8 4.6l-1559.9 0c-9.9 0-23.2-10.9-31.5-25.1l-780.6-1352c-7.3-12.6-8.9-24.6-4.9-30.8l780.3-1351.5c2.1-3.5 5.5-5 9.8-4.6zm807.5 60.1l-774.7 0-771.7 1336.7 754.7 1307.2 1538.3 0 771.7-1336.7-754.7-1307.2-763.5 0zm-10655.1-60.1l1559.9 0c9.9 0 23.3 10.9 31.5 25.2l780.6 1352c7.3 12.6 8.9 24.6 4.9 30.8l-780.3 1351.6c-2.1 3.6-5.5 5-9.8 4.6l-1559.8 0c-9.9 0-23.2-10.9-31.5-25.1l-780.6-1352c-7.3-12.6-8.9-24.6-4.9-30.8l780.3-1351.5c2.1-3.5 5.6-5 9.8-4.6zm807.5 60.1l-774.7 0-771.7 1336.7 754.7 1307.2 1538.3 0 771.7-1336.7-754.7-1307.2-763.5 0zm4124.5 2797.8l1559.9 0c9.9 0 23.3 10.9 31.5 25.2l780.6 1352c7.3 12.6 8.9 24.6 4.9 30.8l-780.3 1351.6c-2 3.6-5.5 5-9.8 4.6l-1559.8 0c-9.9 0-23.2-10.9-31.5-25.1l-780.6-1352c-7.2-12.6-8.9-24.6-4.9-30.8l780.3-1351.6c2.1-3.5 5.6-5 9.8-4.6zm807.5 60.2l-774.7 0-771.7 1336.7 754.7 1307.2 1538.3 0 771.7-1336.7-754.7-1307.2-763.6 0zm-807.5-2918.1l1559.9 0c9.9 0 23.3 10.9 31.5 25.2l780.6 1352c7.3 12.6 8.9 24.6 4.9 30.8l-780.3 1351.6c-2 3.6-5.5 5-9.8 4.6l-1559.8 0c-9.9 0-23.2-10.9-31.5-25.1l-780.6-1352c-7.2-12.6-8.9-24.6-4.9-30.8l780.3-1351.5c2.1-3.5 5.6-5 9.8-4.6zm807.5 60.1l-774.7 0-771.7 1336.7 754.7 1307.2 1538.3 0 771.7-1336.7-754.7-1307.2-763.6 0zm-3257.1 1377l1559.9 0c9.9 0 23.2 10.9 31.5 25.2l780.6 1352c7.3 12.6 8.9 24.6 4.9 30.8l-780.3 1351.6c-2.1 3.6-5.5 5-9.8 4.6l-1559.8 0c-9.9 0-23.2-10.9-31.5-25.1l-780.6-1352c-7.3-12.6-8.9-24.6-4.9-30.8l780.3-1351.6c2.1-3.5 5.5-5 9.8-4.6zm807.5 60.1l-774.7 0-771.7 1336.7 754.7 1307.2 1538.3 0 771.7-1336.7-754.7-1307.2-763.6 0zm-807.5-2918.1l1559.9 0c9.9 0 23.2 10.9 31.5 25.2l780.6 1352c7.3 12.6 8.9 24.6 4.9 30.8l-780.3 1351.6c-2.1 3.6-5.5 5-9.8 4.6l-1559.8 0c-9.9 0-23.2-10.9-31.5-25.1l-780.6-1352c-7.3-12.6-8.9-24.6-4.9-30.8l780.3-1351.6c2.1-3.5 5.5-5 9.8-4.6zm807.5 60.1l-774.7 0-771.7 1336.7 754.7 1307.2 1538.3 0 771.7-1336.7-754.7-1307.2-763.5 0zm4108.2 2797.8l1559.9 0c9.9 0 23.3 10.9 31.5 25.2l780.6 1352c7.3 12.6 8.9 24.6 4.9 30.8l-780.3 1351.6c-2.1 3.6-5.5 5-9.8 4.6l-1559.8 0c-9.9 0-23.2-10.9-31.5-25.1l-780.6-1352c-7.3-12.6-8.9-24.6-4.9-30.8l780.3-1351.6c2.1-3.5 5.6-5 9.8-4.6zm807.5 60.1l-774.7 0-771.7 1336.7 754.7 1307.2 1538.3 0 771.7-1336.7-754.7-1307.2-763.6 0zm0-2857.9l-774.7 0-771.7 1336.7 754.7 1307.2 1538.3 0 771.7-1336.7-754.7-1307.2-763.6 0z"/>
    <path class="fil1" d="M9966.4 1911.9l1588.3 0c10.1 0 23.7 11.1 32.1 25.6l794.9 1376.7c7.4 12.8 9.1 25.1 5 31.4l-794.6 1376.2c-2.1 3.6-5.6 5.1-10 4.7l-1588.3 0c-10.1 0-23.7-11.1-32.1-25.6l-794.9-1376.7c-7.4-12.8-9-25.1-5-31.3l794.6-1376.2c2.1-3.6 5.7-5.1 10-4.7zm2494.4 1446.7l1588.3 0c10.1 0 23.7 11.1 32.1 25.6l794.9 1376.7c7.4 12.8 9.1 25.1 5 31.4l-794.5 1376.3c-2.1 3.6-5.6 5.1-10 4.7l-1588.3 0c-10.1 0-23.7-11.1-32.1-25.6l-794.8-1376.7c-7.4-12.8-9.1-25.1-5-31.4l794.6-1376.2c2.1-3.6 5.7-5.1 10-4.7zm822.2 61.2l-788.9 0-785.8 1361.1 768.5 1331.1 1566.4 0 785.8-1361.1-768.5-1331.1-777.5 0zm-10849.7-61.2l1588.3 0c10.1 0 23.7 11.1 32.1 25.6l794.9 1376.7c7.4 12.8 9.1 25.1 5 31.4l-794.5 1376.3c-2.1 3.6-5.6 5.1-10 4.7l-1588.3 0c-10.1 0-23.7-11.1-32.1-25.6l-794.9-1376.7c-7.4-12.8-9-25.1-5-31.4l794.6-1376.2c2.1-3.6 5.7-5.1 10-4.7zm822.2 61.2l-788.9 0-785.8 1361.1 768.5 1331.1 1566.4 0 785.8-1361.1-768.5-1331.1-777.5 0zm4199.8 2848.9l1588.3 0c10.1 0 23.7 11.1 32.1 25.6l794.9 1376.7c7.4 12.8 9.1 25.1 5 31.4l-794.6 1376.2c-2.1 3.6-5.6 5.1-10 4.7l-1588.3 0c-10.1 0-23.7-11.1-32.1-25.6l-794.9-1376.7c-7.4-12.8-9-25.1-5-31.3l794.6-1376.2c2.1-3.6 5.7-5.1 10-4.7zm822.2 61.2l-788.9 0-785.8 1361.1 768.5 1331.1 1566.4 0 785.8-1361.1-768.5-1331-777.5 0zm-822.2-2971.4l1588.3 0c10.1 0 23.7 11.1 32.1 25.6l794.9 1376.7c7.4 12.8 9.1 25.1 5 31.4l-794.6 1376.3c-2.1 3.6-5.6 5.1-10 4.7l-1588.3 0c-10.1 0-23.7-11.1-32.1-25.6l-794.9-1376.7c-7.4-12.8-9-25.1-5-31.4l794.6-1376.2c2.1-3.6 5.7-5.1 10-4.7zm822.2 61.2l-788.9 0-785.8 1361.1 768.5 1331.1 1566.4 0 785.8-1361.1-768.5-1331.1-777.5 0zm-3316.6 1402.2l1588.4 0c10.1 0 23.7 11.1 32.1 25.6l794.9 1376.7c7.4 12.8 9.1 25.1 5 31.4l-794.5 1376.3c-2.1 3.6-5.6 5.1-10 4.7l-1588.3 0c-10.1 0-23.7-11.1-32.1-25.6l-794.9-1376.7c-7.4-12.8-9.1-25.1-5-31.3l794.6-1376.2c2.1-3.6 5.6-5.1 10-4.7zm822.2 61.2l-788.9 0-785.8 1361.1 768.5 1331.1 1566.4 0 785.8-1361.1-768.5-1331-777.5 0zm-822.2-2971.4l1588.4 0c10.1 0 23.7 11.1 32.1 25.6l794.9 1376.7c7.4 12.8 9.1 25.1 5 31.4l-794.5 1376.2c-2.1 3.6-5.6 5.1-10 4.7l-1588.3 0c-10.1 0-23.7-11.1-32.1-25.6l-794.9-1376.7c-7.4-12.8-9.1-25.1-5-31.3l794.6-1376.2c2.1-3.6 5.6-5.1 10-4.7zm822.2 61.2l-788.9 0-785.8 1361.1 768.5 1331.1 1566.4 0 785.8-1361.1-768.5-1331.1-777.5 0zm4183.2 2848.9l1588.3 0c10.1 0 23.7 11.1 32.1 25.6l794.9 1376.7c7.4 12.8 9.1 25.1 5 31.4l-794.6 1376.3c-2.1 3.6-5.6 5.1-10 4.7l-1588.3 0c-10.1 0-23.7-11.1-32.1-25.6l-794.9-1376.7c-7.4-12.8-9-25.1-5-31.3l794.6-1376.2c2.1-3.6 5.7-5.1 10-4.7zm822.2 61.2l-788.9 0-785.8 1361.1 768.5 1331.1 1566.4 0 785.8-1361.1-768.5-1331-777.5 0zm0-2910.1l-788.9 0-785.8 1361.1 768.5 1331.1 1566.4 0 785.8-1361.1-768.5-1331.1-777.5 0z"/>
      <path class="fil2" d="M11923.6 6500c16 25.1 17.9 50.7 4.3 57.1-13.6 6.4-37.7-8.7-53.7-33.8-1.1-1.7-393.2-600.4-515.3-1882.5-121.4-1274.8-37.9-1421.5-37.7-1421.9 7.6-14.3 29.6-8.4 49.1 13.1 19.5 21.5 29.2 50.5 21.7 64.8-0.2 0.4-76.9 134.1 42.7 1390.1 118.9 1248.7 487.9 1811.6 489 1813.3z"/>
      <path class="fil3" d="M11969.1 1771.4c582.4 0 1054.5 472.1 1054.5 1054.5 0 582.4-472.1 1054.5-1054.5 1054.5-582.4 0-1054.5-472.1-1054.5-1054.5 0-582.4 472.1-1054.5 1054.5-1054.5z"/>
      <path class="fil4" d="M12315.1 1911.5c384.7 105.5 642.4 388.5 575.6 632.1-66.8 243.6-432.8 355.6-817.5 250-384.7-105.5-642.4-388.5-575.6-632.1 66.8-243.6 432.8-355.5 817.5-250z"/>
      <path class="fil2" d="M11925.2 1677.8c311.2 0 598.2 131.4 810.6 343.8 224.7 224.7 363.8 528.6 363.8 858.3 0 305.3-122 579.9-319.3 777.2-195.8 195.7-467 316.8-767.4 316.8-311.2 0-598.2-131.4-810.6-343.8-224.7-224.7-363.8-528.6-363.8-858.3 0-305.3 122-579.9 319.3-777.2 195.7-195.8 467-316.8 767.4-316.8zm768.4 461.1c-169.2-169.2-409.5-273.9-680.7-273.9-282 0-538 115-723.9 300.9-184.4 184.4-298.4 437-298.4 714.1 0 252.7 97.1 476.1 253.9 633 169.2 169.2 409.5 273.9 680.7 273.9 282 0 538-115 723.9-300.8 184.4-184.4 298.4-437 298.4-714.1 0-252.7-97.1-476.1-253.9-633z"/>
      <path class="fil5" d="M12359.9 1980c155 0 280.7 125.7 280.7 280.7 0 155-125.7 280.7-280.7 280.7-155 0-280.7-125.7-280.7-280.7 0-155 125.7-280.7 280.7-280.7z"/>
      <path class="fil2" d="M12349 1956.6c82.5 0 158.5 34.8 214.7 90.9 59.3 59.3 95.9 139.5 95.9 226.6 0 81-32.4 154-84.8 206.4-52 52-124.1 84.2-203.9 84.2-82.5 0-158.5-34.8-214.7-90.9-59.3-59.3-95.9-139.5-95.9-226.6 0-81 32.4-154 84.8-206.3 52-52 124.1-84.2 203.9-84.2zm204.2 120.3c-45.4-45.4-109.7-73.5-182.2-73.5-75.2 0-143.5 30.7-193 80.2-49.2 49.2-79.6 116.6-79.6 190.6 0 67.9 26.2 128 68.5 170.3 45.4 45.4 109.7 73.5 182.2 73.5 75.2 0 143.5-30.7 193-80.2 49.2-49.2 79.6-116.6 79.6-190.6 0-67.9-26.2-128-68.5-170.3z"/>
      <path class="fil6" d="M11292.9 15520.6c379 1326.7 3932.5 1288.5 2502.1-818.2-652.2-960.5-1885.4-415-1885.4-415l-616.6 1233.2z"/>
      <path class="fil7" d="M11292.9 15520.6c104.7 366.5 451.9 628.7 869.2 772 1032.4 168.5 2172.6-330.8 1253-1685.2-160-235.7-355-380.5-558.2-465.2-498.9-53-947.2 145.1-947.2 145.1l-616.6 1233.2z"/>
      <path class="fil2" d="M11359.1 15567c148.8 452.1 752 721.6 1348.9 769 275.5 21.8 549-5.1 778.3-84.3 227.7-78.7 411.2-208.6 508.7-393.1 137.9-261 100.7-635.3-237.3-1133-578.9-852.6-1692.4-410.2-1794.1-367.5l-604.5 1208.9zm1414.6 920.8c-674.3-53.5-1365.6-396-1536.9-980.9-6.6-19.3-7.8-37.2-1.7-49.1l616.6-1233.2c2.6-4.9 6.4-8.7 11.4-10.9 3.7-1.6 1270.9-562.6 1969.2 465.8 391.2 576.2 435.6 1007.1 277.8 1305.8-103.7 196.4-296.3 333.8-534.1 415.9-236.2 81.6-518 109.3-802.2 86.8z"/>
      <path class="fil6" d="M12284 15105.1c0 0 1685.7 827.6 3578.7-252.1 1893-1079.7 2480.7-2577.5 1261.1-3686.2-1219.6-1108.7-5292.8 1764.2-5292.8 1764.2l453 2174.1z"/>
      <path class="fil7" d="M12284 15105.1c0 0 1685.7 827.6 3578.7-252 361.6-206.2 675.4-427.8 938.3-658.9 489.2-783.6 418.7-1606-326.3-2283.2-901.8-819.8-3363.6 537.3-4585.4 1300.2l394.6 1894z"/>
      <path class="fil2" d="M12329 15061c310.6 131.4 1810.7 674.3 3485.2-280.8 519.6-296.3 940.4-624.3 1252-967 322.7-355 527.3-724.9 602.2-1090.8 72.4-353.9 22.7-700.5-160.2-1021.3-94.4-165.6-226-327-396.3-481.9-1138.3-1034.8-4936.3 1578.5-5214 1772l431.3 2069.8zm3582.3-135.1c-1866.6 1064.6-3536.6 286.4-3610.7 250.9l-1.8-0.8c-33.1-15.2-66.5-59.4-74.7-98.5l-453-2174c-4.1-19.9-1.1-36.5 9.8-44.1 11.8-8.2 4096.1-2889.5 5355.1-1744.9 195.6 177.8 348.7 366.6 460.8 563.3 212.6 372.7 272.7 763.7 193 1153.3-77.2 377.7-286.5 757.3-615.9 1119.6-314.3 345.7-738.6 676.5-1262.6 975.3z"/>
      <path class="fil6" d="M7033.7 13958.8c-3279.6 237-3617.8-5168.1-1162.6-3278.8 920.2 708.1 1798.3 2401.7 1798.3 2401.7l-635.6 877.2z"/>
      <path class="fil7" d="M7033.7 13958.8c-1110 80.2-1882.6-486.1-2324.4-1197-119.4-1017.7 415.4-1781.9 1589.2-878.7 445.6 342.9 881.2 916.7 1212.1 1417.5l-476.9 658.2z"/>
      <path class="fil2" d="M7070.7 14035c-1310.4 94.3-2171.6-701.4-2586-1594.3-218.2-470.1-309.1-966-274.2-1370.5 34.8-403.7 195.1-718.1 479.5-826.5 278.3-106.1 673.7-16.3 1184.6 376.8 947.3 728.9 1839.4 2449.9 1842 2454.8 16.1 30.8 18.5 58.8 8.2 72.8l0.1 0.1-635.6 877.2c-4.5 6.1-10.9 9.2-18.6 9.5zm-2484.7-1594c374.9 807.8 1169.4 1526.5 2398.3 1442.5l611.8-844.2c-149.2-278.4-925-1681.2-1728.7-2299.7-469.7-361.4-832.2-444.4-1086.5-347.5-265.1 101-414.6 396.1-447.4 775.5-32.7 378.6 51 839.5 252.4 1273.5z"/>
      <path class="fil6" d="M7383.1 12781.1c0 0-2151.1-486.9-2950.1-3962-799-3475.1 1986.3-5716.8 3406.4-4364.6 1420.2 1352.1 2054.2 6728.4 2054.2 6728.4l-2510.5 1598.3z"/>
      <path class="fil7" d="M7383.1 12781.1c0 0-485.7-110.2-1081.2-598.4-474.7-477.8-981.6-1257.4-1271.3-2517.4-653.7-2843.2 1625.1-4677.2 2787-3571 1032.9 983.4 1557.5 4568.6 1661.3 5352.6l-2095.7 1334.2z"/>
      <path class="fil2" d="M7409.1 12855.9c-6.4-1.5-2217-502-3035.6-4062.6-293.5-1276.7-110.6-2387.1 310.3-3218.3 256.6-506.7 602.1-910.4 982.2-1184.9 381.1-275.3 797.4-420.7 1194.2-410.2 356.4 9.4 700.2 144.8 993.9 424.5 1461.5 1391.5 2098.8 6798 2100.7 6813.6 2.2 18.2-2.4 31-11.7 36.9l-2510.5 1598.4c-6.4 4.1-14.5 4.8-23.5 2.6zm-2916.5-4011.1c743.2 3232.5 2668.5 3810.1 2850.6 3858l2486-1582.7c-49.9-407.1-680.7-5355.4-2004.4-6615.7-257.2-244.8-567.2-363.6-894.9-372.3-385.2-10.2-790.7 132-1163.3 401.1-373.7 269.9-713.9 667.6-967 1167.6-412.7 815.1-592.9 1900.6-307 3144z"/>
      <polygon class="fil8" points="7242.6 14409.8 7426.5 14792.9 5449.6 14057.3 7104.7 14057.3 "/>
      <path class="fil2" d="M7306.4 14413l181.5 378.2c24.9 51.8 17.5 94.6-16.4 95.6-7.4 0.2-15.5-1.6-23.9-5.1l-1973.8-734.4c-39.8-14.8-83-67-96.4-116.6-11.4-42.5 2.7-69.3 32.1-66.8l1651.2 0c34.3-0.1 81.7 41.8 105.9 93.5l4.6 10.7 135.1 345.1zm-3 253.3l-122.3-254.8-5.2-12.3-97.2-248.3-1160.4 0 1385.1 515.4z"/>
      <path class="fil3" d="M12236 12340.4c555.5-161.8 1155.8 221.7 1340.7 856.5 85.4 293.3 488.6 2177.1-413.8 2440-917.4 267.3-1501.7-1523.6-1597.9-1853.9-184.9-634.9 115.5-1280.7 671-1442.6z"/>
      <path class="fil9" d="M12236 12340.4c22.1-6.5 44.4-11.9 66.6-16.7-265.6 285.5-373.1 734-243.9 1177.2 91.2 313.1 621.1 1938.8 1457.7 1879.1-85.8 121.6-200.9 212.5-353.4 256.9-917.4 267.3-1501.7-1523.6-1597.9-1853.9-184.9-634.9 115.5-1280.7 671-1442.6z"/>
      <path class="fil2" d="M12232 12284.9c318.2-92.7 639.3-35.5 901.4 131.9 248.7 158.9 449.8 418.9 544.5 742.5l0.3-0.1c0.8 2.1 1.3 4.2 1.6 6.4 44.1 153.9 164.8 696.7 163.5 1235.1-1.4 565.7-146 1131.6-667.6 1289.2-5.5 1.9-11 3.5-16.4 4.8-383.3 107.9-698.7-71.9-949.5-362.9-422.5-490.2-684.3-1300.9-746.1-1512.9-94.7-325.1-64.6-654.3 60.7-923.6 134.4-288.8 381-515.1 707.8-610.4zm725.4 238.2c-223.2-142.6-480-196.2-717.3-127.1-228.6 66.6-410 244.2-518.5 477.4-117.6 252.8-145.2 564-54.9 873.7 61.1 209.6 319.7 1010.7 734.8 1492.4 222.1 257.7 480.4 422.5 757.2 342l0.3-0.1c373.7-108.9 477.3-613.1 478.5-1125.2 1.3-532.6-117.7-1068.1-161.1-1219.3l-0.9-2.1 0.2-0.1-0.5-1.8c-90.4-310.5-281.7-559-517.8-709.8z"/>
      <path class="fil3" d="M9893.7 10869.9c1658.8 0 3003.6 1204.1 3003.6 2689.4 0 1485.3-1344.7 2689.4-3003.6 2689.4-1658.8 0-3003.5-1204.1-3003.5-2689.4 0-1485.3 1344.7-2689.4 3003.6-2689.4z"/>
      <path class="fil9" d="M12721.6 14467.2c-415.9 1038.5-1525 1781.5-2827.9 1781.5-1220.2 0-2270.4-651.6-2740.5-1587.3 415.9-1038.5 1525-1781.5 2827.9-1781.5 1220.2 0 2270.4 651.6 2740.5 1587.3z"/>
      <path class="fil2" d="M9849.8 10776.3c846.9 0 1618.5 311.8 2181.5 815.9 582 521.1 941.9 1236 941.9 2021.1 0 757.3-340.6 1441-891.3 1934.1-548.5 491.1-1306.6 794.9-2144.4 794.9-846.8 0-1618.5-311.8-2181.5-815.9-582-521.1-941.9-1236-941.9-2021.1 0-757.3 340.6-1441 891.3-1934.1 548.5-491.1 1306.6-794.9 2144.4-794.9zm2153.9 946.7c-524.1-469.2-1254.2-759.5-2066.2-759.5-821 0-1564.7 298.3-2103.3 780.6-536.3 480.2-868.1 1141.3-868.1 1869.3 0 700.2 312.4 1330 817.5 1782.3 524.1 469.3 1254.2 759.5 2066.2 759.5 821 0 1564.7-298.3 2103.3-780.5 536.4-480.2 868.1-1141.3 868.1-1869.3 0-700.2-312.4-1330-817.5-1782.3z"/>
      <path class="fil8" d="M9893.7 10869.9c1658.8 0 3003.6 1204.1 3003.6 2689.4 0 1101.8-740 2048.7-1799.3 2464.3-243.5 65.3-498.4 100-761 100-1712.3 0-3100.4-1473.9-3100.4-3292.1 0-210.2 18.8-415.8 54.3-615.1 519-804.9 1490.3-1346.6 2602.9-1346.6z"/>
      <path class="fil2" d="M9871.7 10823.1c838.1 0 1599.4 306.4 2152.7 801.8 562.7 503.9 910.8 1197.5 910.8 1961.4 0 548.3-180.7 1057.8-491.4 1483.5-319.7 437.9-777.4 787.6-1317.7 999.6-1.2 0.5-2.5 0.8-3.8 1-123.1 32.9-248.9 58-376.9 74.9-126.6 16.6-255.6 25.2-386.5 25.2-1745.4 0-3160.4-1507-3160.4-3365.9 0-105.5 4.6-209.6 13.7-312.1 9.2-104.7 23-207.7 41-308.7 0.7-3.9 2.1-7 4.1-9.3 265.5-410.9 648-753.4 1106.6-990.6 443.5-229.4 958.4-360.7 1507.9-360.7zm2138.9 867.2c-533.8-478-1274.3-773.6-2095-773.6-543.5 0-1053.4 130.1-1492.9 357.4-454 234.9-832.5 573.4-1095.1 979.2-17.4 98.7-30.8 198.7-39.6 299.5-8.9 100.9-13.5 202.9-13.5 305.8 0 1777.4 1361.3 3218.3 3040.5 3218.3 129.2 0 256.6-8.5 381.6-24.9 127-16.7 251.5-41.6 372.8-74l0.3-0.1c535.5-210.1 989-556.5 1305.5-990 306-419.1 483.9-919.2 483.9-1455.5 0-721.4-324.3-1372.5-848.6-1842z"/>
      <path class="fil3" d="M9893.7 10869.9c1658.8 0 3003.6 1204.1 3003.6 2689.4 0 529.3-170.8 1022.7-465.7 1438.8-348.8 144.3-728.1 223.6-1125 223.6-1712.3 0-3100.4-1473.9-3100.4-3292.1 0-215.1 19.7-425.4 56.8-629 469.6-272.4 1029.5-430.7 1630.8-430.7z"/>
      <path class="fil9" d="M12721.6 14467.3c-75.1 187.4-172.8 365.3-290.1 530.8-348.8 144.3-728.1 223.6-1125 223.6-1270.9 0-2363.1-812.1-2841.8-1974.2 445.1-233.5 963.2-367.6 1516.3-367.6 1220.2 0 2270.5 651.6 2740.5 1587.4z"/>
      <path class="fil2" d="M9849.8 10776.3c846.9 0 1618.5 311.8 2181.5 815.9 582 521.1 941.9 1236 941.9 2021.1 0 266.9-42.2 524.4-120.8 767.5-81 250.3-200.4 485.2-352 699.1-3.9 5.5-9.1 9.1-15.3 10.9-177.9 73.4-363.2 130-554 167.9-187.1 37.2-381.2 56.7-580.6 56.7-1778.5 0-3220.3-1540-3220.3-3439.7 0-109.4 4.9-216.9 14.4-322.4 9.7-107.2 24.2-213.4 43.3-318.2 2.3-12.6 8.4-20.9 17-25.1 240.5-139.2 504.3-248.8 785.2-323 272.6-72 561.1-110.6 859.8-110.6zm2153.9 946.7c-524.1-469.2-1254.2-759.5-2066.2-759.5-292.4 0-574.9 37.9-841.8 108.3-271.8 71.8-527.5 177.4-760.8 311.4-16.8 95.2-29.8 192.2-38.7 290.8-9.2 102.5-14 205.9-14 309.7 0 1736.6 1334.4 3144.4 2980.6 3144.4 192.4 0 381.7-19.2 566.2-55.8 186.4-37 366.4-91.7 538.3-162.3 146-207.4 260.8-433.4 338.2-672.8 75.4-232.9 115.8-478.5 115.8-731.9 0-700.2-312.4-1330-817.5-1782.3z"/>
      <path class="fil2" d="M14593 6860.1c-1.8 16.4-24.1 18.7-49.7 5.1-25.6-13.6-44.9-37.9-43-54.3 54.5-497.6 391.1-895.8 815.7-1198.6 664.8-474.4 1547.7-715.7 1896.7-738.2 19.9-1.3 49.1 14.8 65.2 36 16.2 21.2 13.1 39.5-6.7 40.8-343.9 22.2-1215.6 261.1-1874.4 731.2-418.5 298.6-750.3 690.2-803.8 1178z"/>
      <path class="fil3" d="M10143.1 11258.1c164.2 554.8-216.8 1156.7-850.9 1344.3-292.9 86.7-2175 497.7-2441.7-403.6-271.1-916.3 1517.3-1508 1847.2-1605.6 634.1-187.6 1281.2 110.1 1445.4 664.9z"/>
      <path class="fil9" d="M10150.4 11284.1c144.9 547.5-234 1133.6-858.2 1318.3-292.9 86.7-2175 497.7-2441.7-403.6-56-189.2-24-364.6 64.8-524.6 344.5 806.1 2130.7 415.6 2415.4 331.3 395-116.9 691.7-394.5 819.7-721.3z"/>
      <path class="fil2" d="M10200.6 11260.7c91.2 315.5 35 634.2-130.1 895-157.8 249.3-417 451.5-740.1 547.6l0.1 0.3c-2.1 0.8-4.2 1.3-6.3 1.6-153.7 44.8-696 167.8-1234.4 168.7-565.7 1-1132.4-141.3-1292.1-662.4-2-5.9-3.7-11.7-5.1-17.4-147-517 242.9-919 713.8-1203.6 455.6-275.4 985.6-448.3 1153.3-498.1l-0.1-0.3c2.2-0.8 4.3-1.3 6.4-1.6 323.3-94.5 650.8-65.5 919.4 58.1 287.5 132.3 513.8 375.6 611.4 699 1.5 4.4 2.7 8.8 3.9 13.1zm-237.1 719.6c141.6-223.7 194.2-480.6 124.2-717.5l-0.1-0.3c-67.5-228.3-245.9-408.9-479.6-516.4-252.2-116-562-142.6-870-52.4l-2 0.8-0.2-0.2-1.7 0.5c-164.3 48.6-691.3 220.1-1142.9 493.1-434.4 262.6-800.6 610.8-685.7 1004.7l1.3 4.3c111.8 371.4 615.4 472.5 1126.5 471.6 532.6-0.9 1067.8-122.2 1218.7-166.3l2-0.9 0.1 0.3 1.8-0.5c310.1-91.7 557.9-284 707.7-520.7z"/>
      <path class="fil3" d="M12586.2 6047.9c2205.9-75.7 3994.2 1722 3994.2 4015.3 0 2293.3-1788.3 4213.8-3994.2 4289.5-2205.9 75.7-3994.2-1722-3994.2-4015.2 0-2293.3 1788.3-4213.7 3994.2-4289.5z"/>
      <path class="fil9" d="M16544.8 10619c-260.8 2040-1933.6 3664.1-3958.6 3733.6-2205.9 75.7-3994.2-1722-3994.2-4015.3 0-1818.8 1125-3402.9 2690.9-4018.4-1050 692.8-1752.4 1912.9-1752.4 3279.6 0 2073.7 1617 3699.2 3611.7 3630.8 1569.1-53.9 2904.2-1140 3402.6-2610.3z"/>
      <path class="fil2" d="M12515.5 5901.5c42.3-1.4 87.8-2.2 136.3-2.2 1079.1 0 2061.2 444 2788.5 1173.2 744.2 746.2 1216.8 1773.7 1256.1 2919.8 1.8 52 2.7 103.8 2.7 155.3 0 1167.5-452.9 2237.7-1185.2 3024.1-730.5 784.5-1740.6 1288.9-2857.1 1327.3-42.3 1.4-87.7 2.2-136.3 2.2-1079.1 0-2061.2-444-2788.5-1173.2-744.2-746.2-1216.8-1773.6-1256.1-2919.8-1.8-52-2.7-103.8-2.7-155.2 0-1167.6 452.9-2237.7 1185.2-3024.1 730.5-784.5 1740.6-1288.9 2857.1-1327.3zm273.5 290.3c-40.5 0-84.6 0.8-132.1 2.4-1089.4 37.4-2076.4 531.1-2791.5 1299-713.3 766.1-1154.6 1802.8-1154.6 2928.5 0 49.3 0.8 97.9 2.5 145.7 35.3 1028.5 443.6 1934.7 1085.5 2578.3 658.9 660.7 1568.1 1062.9 2584.7 1062.9 40.5 0 84.6-0.8 132.1-2.4 1089.4-37.4 2076.4-531.1 2791.5-1299 713.4-766.1 1154.6-1802.8 1154.6-2928.5 0-49.3-0.8-97.9-2.5-145.7-35.3-1028.5-443.6-1934.7-1085.5-2578.3-658.8-660.6-1568.1-1062.9-2584.7-1062.9z"/>
      <path class="fil4" d="M13484.9 6467.3c1717.4 240.1 2977.9 1714.3 2815.4 3292.7-162.5 1578.4-1686.4 2663.4-3403.8 2423.3-1717.4-240.1-2977.9-1714.3-2815.4-3292.7 162.5-1578.4 1686.4-2663.4 3403.8-2423.3z"/>
      <path class="fil8" d="M12613.6 7780.5c346.7 0 627.8 291.4 627.8 650.8 0 359.4-281.1 650.8-627.8 650.8-346.7 0-627.8-291.4-627.8-650.8 0-359.4 281.1-650.8 627.8-650.8z"/>
      <path class="fil10" d="M12429.5 7890.7c131 0 237.1 110 237.1 245.8 0 135.7-106.2 245.8-237.1 245.8-130.9 0-237.1-110-237.1-245.8 0-135.7 106.2-245.8 237.1-245.8z"/>
      <path class="fil10" d="M12846.4 8777c37.9 0 68.7 31.9 68.7 71.2 0 39.3-30.8 71.2-68.7 71.2-37.9 0-68.7-31.9-68.7-71.2 0-39.3 30.8-71.2 68.7-71.2z"/>
      <path class="fil8" d="M14688.8 7877c184 0 374.2 320 425 714.7 50.7 394.7-57.3 714.7-241.2 714.7-184 0-374.2-320-425-714.7-50.7-394.7 57.3-714.7 241.3-714.7z"/>
      <path class="fil10" d="M14765.6 8007.3c68.3-9.4 155.2 99.7 194.1 243.6 38.9 143.9 15.1 268.2-53.2 277.5-68.3 9.4-155.2-99.7-194.1-243.6-38.9-143.9-15.1-268.2 53.2-277.5z"/>
      <path class="fil10" d="M14679 8983.8c25.2-3.5 57.3 36.8 71.7 90 14.4 53.1 5.6 99-19.6 102.5-25.2 3.5-57.3-36.8-71.7-89.9-14.4-53.1-5.6-99 19.6-102.5z"/>
      <path class="fil2" d="M11517.5 10126.7c-4.7-45.4 25.3-62 67.1-37.2 41.8 24.9 79.5 81.8 84.2 127.2 0.2 1.5 46.4 503.7 684.4 909.6 667.7 424.9 971.3 10 972.2 8.8 18.6-24.7 64.2-7.9 101.8 37.5 37.7 45.4 53.1 102.3 34.5 127-1 1.3-342.4 467.9-1097.7-12.7-785-499.6-846.3-1158.3-846.4-1160.2z"/>
      <path class="fil3" d="M17409 3326.2c550.9-189 1150.6 104.3 1339.7 655.1 189 550.9-104.3 1150.6-655.1 1339.7-550.9 189-1150.6-104.3-1339.7-655.1-189-550.9 104.3-1150.6 655.1-1339.7z"/>
      <path class="fil2" d="M17353.9 3234.3c286-98.1 587.8-69.6 844.4 55.9 279.4 136.6 507.9 383.5 619.4 708.3 103.2 300.7 77.4 609.4-47.7 865.2-122 249.4-338.7 452.2-621.3 549.2-286 98.1-587.8 69.6-844.4-55.9-279.4-136.6-507.9-383.5-619.4-708.3-103.2-300.7-77.4-609.3 47.7-865.2 122-249.4 338.7-452.2 621.3-549.2zm876.8 228.2c-228.2-111.6-501.8-135.2-766.7-44.3-268.2 92-473.6 283.7-588.7 519.1-112 229-138.3 495.7-52.5 745.8 77.6 226 243.5 401.3 448.9 501.7 228.2 111.6 501.8 135.2 766.7 44.3 268.2-92.1 473.6-283.7 588.7-519.1 112-229 138.3-495.7 52.5-745.8-77.6-226-243.5-401.3-448.9-501.7z"/>
      <path class="fil2" d="M11409 7071.3c13.2 48.3-6.6 77-45.1 64.3-39.3-13-83.1-64-97.9-114l-2-7.5c-5.5-22.4-3.6-40.3 4-51.3 13.8-56.4 56-140 137.7-221.9 106.1-106.4 279.4-228.1 541.3-315.4 36.8-12.3 77.6-24.4 122.7-36.3 30.1-8 78.3 26.9 107.5 77.9 29.2 51 28.4 98.9-1.7 106.9-39.3 10.4-78.9 22.3-118.6 35.5-253.5 84.5-419.5 200.7-520.4 301.8-91.5 91.8-129.9 150.1-127.4 160z"/>
      <path class="fil2" d="M15126.3 7317.7c4.8 45.3-25 62.1-66.7 37.4-41.6-24.7-79.3-81.4-84.1-126.8 0-0.5-16-163.3-299.5-295.1-40.8-19-81.9-73.4-91.7-121.4-9.9-48 15.2-71.6 56-52.6 450.8 209.7 485.9 557.6 486 558.6z"/>
      <path class="fil11" d="M10722.3 8510.8c373.5 0 676.3 302.8 676.3 676.3 0 373.5-302.8 676.3-676.3 676.3-373.5 0-676.3-302.8-676.3-676.3 0-373.5 302.8-676.3 676.3-676.3z"/>
      <path class="fil2" d="M10744.3 8557.8c20.8 0.1 41 1 61.7 2.9 27 1.8 17.5-34.9 9.8-49.7-8.4-16.8-30.1-42.8-49.8-44-34.2-3-68.5-3.9-102.9-2-25.7 1.8-12.1 41.5-3.7 55.2 9 15.3 30.6 39.9 49.9 38.6 11.5-0.8 23.5-0.9 35-0.9zm-201.7 31.5c21.7-6.7 5.6-45-2.5-57.7-9-14.5-33.2-40.4-52.1-34.6-18 5.8-35.6 12.3-53.1 19.5-21.5 9-2.6 49.5 7 62.3 8.6 12.8 33 36.2 49.8 29.2 16.8-6.9 33.6-13.2 50.9-18.7zm-189.7 97.2c19-15.2-4.9-57.6-18-70.7-8.6-9.7-31.8-27.7-44.5-17.5-14.8 10.9-29.3 22.5-43.2 34.6-26.3 23.6 36.1 109.4 64.4 86.8 12.8-11.5 27.5-22.9 41.4-33.1zm-149.8 153.2c14.3-19.6-12.4-60.3-27.8-73.9-9.8-8.6-30.8-21.9-41.1-7.8-9.7 13.3-24.5 35.1-31.7 49.4-12.7 21.7 15.2 62.7 32.6 76 9.8 8.1 29.6 17.3 37.9 3.3 9.3-15.8 19.4-32.2 30.2-47zm-68.9-81.6l-31.7 49.4 70.5 79.2-38.8-128.6zm-29.1 292.9c9.4-35.1-49.3-100.8-70.7-76.7-2 2.5-2.9 4.4-3.7 7.5-5.8 22.7-10.5 45.2-14.2 68.3-5.8 46.2 67.2 108.3 75.5 64.1 3.4-21.4 7.8-42.2 13.1-63.2zm-9.9 280.8c-4.3-22.5-22.1-47.3-41.5-59.1-22.6-13.3-37.9-2.7-32.9 23.2 6.3 33.3 15 66.3 25.9 98.5 7.8 21.4 34.1 59.6 60.2 55.6 16.7-3.8 13.4-24.9 9.4-37.6-8.9-26.2-15.9-53.3-21-80.5zm161.9 306.6c-14.5-13.7-44.3-31-48.2 0.2-1.2 20.1 13.6 45.9 27.9 59.3 25.8 25.8 55.2 50.9 84.7 72.4 34.7 25 47.7-4.5 32.3-36.8-6.1-14.2-18.5-29.9-30.9-38.9-23.2-17.3-45.3-35.8-65.8-56.2zm271.3 155.3c-45.8-10.8-15.7 78.4 30.5 92 23.6 6.5 47.4 11.5 71.5 15.6 43.5 5.4 8.2-84.9-36.5-93.2-22.2-3.9-43.8-8.3-65.5-14.3zm248.2 18.6c-25.6 3.7-9.6 43.8-1.3 57.1 8.5 14.4 31.5 39.1 49.8 36.5 19.9-2.2 39.5-5.5 59.1-9.4 24.9-5.7 6.7-48.5-3.1-61.6-8.8-13.2-30.9-35.2-48.1-31.5-18.6 3.8-37.4 6.9-56.3 9zm211-61.3c-19.6 9.8-2.5 47.4 6.6 60.3 8.8 13.2 34.5 39.1 51.8 30.5 16.6-8 33-16.8 48.9-26.1 20.3-12.9-2.1-54.7-13.8-67.9-8.8-10.5-32.1-31-46.5-21.8-15.4 9-30.9 17.4-47 25.2zm173.4-121.6c-15 15.1 3.9 51.1 15.1 64.4 9.1 11.3 36.2 35.5 50.3 21.4 13.2-12.9 26.6-26.6 38.6-40.7 15-16.7-7.9-55.5-20.5-68.8-9.4-10.5-34-29.2-46.5-15.2-11.9 13.5-24.1 26.4-37 39zm130-177c-16.5 35.8 52.2 110.5 71.2 77.9 9.4-18.7 17.9-37.6 25.6-57 9.7-27.2-23.8-74.5-49.8-82.6-9.2-2.9-19.4-2-23 8.2-7.4 18.4-15.2 35.9-24 53.6zm67.4-239.4c-1.7 28.5 32.4 78.8 62.3 76.5 9-1.4 13.3-8.1 13.8-17.1 2.1-26.3 2.9-52.9 2-79.3-1.4-27.2-32.8-74.8-62.1-72.5-10.7 1.6-14.7 10.5-14.1 21.1 0.7 23.8 0 47.6-1.9 71.3zm-52.6-308.2c8.7 19.2 36.3 54.3 60 46.4 15.8-7.2 8.4-32.8 2.9-45.1-17.2-37.3-36.9-72.6-59.6-106.8-9.2-14.5-44.9-49.9-59.2-25.4-7.7 15.5 3.5 38.9 12.1 52.4 16.8 25.5 30.9 50.8 43.8 78.5zm-232.5-257c13.2 8.1 29.8 9.3 33.2-8.7 3.6-26.9-20.1-60.4-42.2-73.9-26-15.5-52.6-29.2-80.3-41.4-15.5-6.9-28.2-1.1-28.2 16.8 0 26.3 24.3 60.8 48.1 71.4 24 10.7 46.7 22.3 69.3 35.8z"/>
      <path class="fil11" d="M16143.9 9517.5c159.9 6.9 276.5 315 260.5 688.2-16.1 373.2-158.8 670.1-318.7 663.2-159.9-6.9-276.5-315-260.5-688.2 16.1-373.2 158.8-670.1 318.7-663.2z"/>
      <path class="fil2" d="M16122.9 9470.4c-23.8-1.6-17.2 31.6-10.9 45.3 8.5 19.4 30.7 47.2 52.9 48.7 19.1 1 36.1 6.5 52.1 17 30 20 42.9-4.9 31.5-33.4-5.9-17.6-21.3-36.7-36.4-46.8-27-17.7-56.8-29.1-89.1-30.7zm-55.8 133.4c26.6-23.9-36-109.6-64-87.2-14.7 12.5-27.8 26.3-40 41.2-16.3 20.3 13.5 64.8 30.8 78 9.1 7.5 27.7 17 36.8 5.6 10.8-13.4 23.4-26.4 36.5-37.5zm-120.2 185.4c14.2-39.7-57.1-111.1-72.6-74.8-7.9 19.7-15.4 39.7-21.9 59.8-12.2 34.2 50.4 105.7 71.4 76.7 1-1.6 1.5-2.7 2.1-4.5 6.5-19.4 13.4-38.4 21-57.3zm-66.3 246.6c5.1-26.9-27.2-72-53.2-78.5-11.9-3.2-19.9 1.9-22.2 13.8-3.5 23.8-6.9 47.1-9.6 71-3.3 28.1 32.4 80.1 61.7 77.9 9-1.3 13-7.2 14.1-16 2.6-23 6-45.4 9.3-68.2zm-18.1 287.1c-1.5-27.8-31.5-72.7-61.2-72.7-11.2 0.9-15.5 10.7-14.9 21.3 0.8 27.5 2.5 55 4.8 82.4 2.7 26.8 33 72.5 62.4 70.3 11.3-1.7 14.6-12.8 13.5-23.5-2.3-25.8-3.8-51.9-4.5-77.8zm52.8 323.6c-7.8-21.5-31.8-55.8-56.9-55.8-20 1.4-17 24.1-12.4 38.3 12 36.2 27.6 73.3 45.6 107 9.1 16.7 26 36.9 44.9 41.7 31.8 6 22.1-33.9 12.8-51-13.4-25.4-24.8-53-33.9-80.2zm178 172.7c-23.9 5.5-6.5 47.3 2.5 60.1 9.2 13.8 31.3 37.3 49.5 33 18.5-4.1 39.2-12.9 55-23.5 19.3-12.3-1.9-52.4-12.3-65.5-9.2-11.6-33.1-33.8-48.8-23.9-13.2 8.8-30.5 16.2-46 19.7zm149.8-139.7c-11.5 19.7 12.4 59.1 27.9 72 10 9.4 33.1 23.5 42.7 7.1 10-17.7 19-35.8 27.5-54.3 10.7-23.2-17.4-64.3-36.6-77.1-10.5-7.4-28.5-14.1-35.4 0.7-8.1 17.6-16.6 34.7-26.2 51.6zm85.4-227.2c-9.3 34.8 50.1 102.3 71.5 75.5 1.6-2.5 2.2-3.9 3-6.8 5.2-21.8 10.6-44.8 14.4-66.9 5.4-28.9-34.7-86.8-64.4-79.4-6.4 2.1-9.5 6.8-10.7 13.4-4.5 21.6-8.6 42.8-13.8 64.3zm37.6-272c-1.5 27.7 32.8 77.8 62.3 75.6 9.7-1.5 13.3-8.8 13.8-18.2 1.1-25.8 1.7-51.6 1.7-77.5 0-27.5-35.7-80.6-65.1-73.2-8.4 2.8-11.1 10.7-11.1 19.4 0.1 24.7-0.5 49.4-1.6 74.1zm-18.9-310c4.7 24.8 33.6 67.4 61.3 65.2 13.8-2 15.4-16.6 13.1-28.6-5.8-31.6-12.7-62.4-21-93.5-6.3-23-34.7-64-61.7-59.9-14.5 3.4-13.6 21.6-10.4 33.5 7.5 27.5 13.6 55.2 18.7 83.2z"/>
      <path class="fil4" d="M18046.3 3402.4c384.7 105.5 642.4 388.5 575.6 632.1-66.8 243.6-432.8 355.5-817.5 250-384.7-105.5-642.4-388.5-575.6-632.1 66.8-243.6 432.8-355.5 817.5-250z"/>
      <path class="fil5" d="M18143.9 3515.6c155 0 280.7 125.7 280.7 280.7 0 155-125.7 280.7-280.7 280.7-155 0-280.7-125.7-280.7-280.7 0-155 125.7-280.7 280.7-280.7z"/>
      <path class="fil2" d="M18132.9 3492.3c82.5 0 158.5 34.8 214.7 90.9 59.3 59.3 95.9 139.5 95.9 226.6 0 81-32.4 154-84.8 206.4-52 52-124.1 84.2-203.9 84.2-82.5 0-158.5-34.8-214.7-90.9-59.3-59.2-95.9-139.5-95.9-226.6 0-81 32.4-154 84.8-206.3 52-52 124.1-84.2 203.9-84.2zm204.2 120.3c-45.4-45.4-109.7-73.5-182.2-73.5-75.2 0-143.5 30.7-193 80.2-49.2 49.2-79.6 116.6-79.6 190.6 0 67.9 26.2 128 68.5 170.3 45.4 45.4 109.7 73.5 182.2 73.5 75.2 0 143.5-30.7 193-80.2 49.2-49.2 79.6-116.6 79.6-190.6 0-67.9-26.2-128-68.5-170.3z"/>
</svg>
