<svg xmlns="http://www.w3.org/2000/svg" height="1470" width="1470" viewBox="0 0 1470 1470">
<style>
  .a{
    fill:#e73b58;
    opacity:0.7;
    stroke-width:7;
  }
  .b{
    fill:#3e000c;
    stroke-width:0.9;
  }
</style>
  <rect x="-1" height="1470" width="1470" style="fill:#fbdfdc;stroke-width:7"/>
    <rect x="-1" height="70" width="1470" class="a"/>
    <rect width="1470" height="70" x="-1" y="140" class="a"/>
    <rect width="1470" height="70" x="-1" y="280" class="a"/>
    <rect y="420" x="-1" height="70" width="1470" class="a"/>
    <rect width="1470" height="70" x="-1" y="560" class="a"/>
    <rect y="700" x="-1" height="70" width="1470" class="a"/>
    <rect y="840" x="-1" height="70" width="1470" class="a"/>
    <rect width="1470" height="70" x="-1" y="980" class="a"/>
    <rect width="1470" height="70" x="-1" y="1120" class="a"/>
    <rect y="1260" x="-1" height="70" width="1470" class="a"/>
    <rect y="1400" x="-1" height="70" width="1470" class="a"/>
    <rect y="151.2" x="53.5" height="70" width="1470" transform="translate(1620.1394 -53.487717)rotate(90)" class="a"/>
    <rect y="291.2" x="53.5" height="70" width="1470" transform="translate(1620.1394 -53.487717)rotate(90)" class="a"/>
    <rect width="1470" height="70" x="53.5" y="431.2" transform="translate(1620.1394 -53.487717)rotate(90)" class="a"/>
    <rect y="571.2" x="53.5" height="70" width="1470" transform="translate(1620.1394 -53.487717)rotate(90)" class="a"/>
    <rect width="1470" height="70" x="53.5" y="711.2" transform="translate(1620.1394 -53.487717)rotate(90)" class="a"/>
    <rect width="1470" height="70" x="53.5" y="851.2" transform="translate(1620.1394 -53.487717)rotate(90)" class="a"/>
    <rect y="991.2" x="53.5" height="70" width="1470" transform="translate(1620.1394 -53.487717)rotate(90)" class="a"/>
    <rect y="1131.2" x="53.5" height="70" width="1470" transform="translate(1620.1394 -53.487717)rotate(90)" class="a"/>
    <rect width="1470" height="70" x="53.5" y="1271.2" transform="translate(1620.1394 -53.487717)rotate(90)" class="a"/>
    <rect width="1470" height="70" x="53.5" y="1411.2" transform="translate(1620.1394 -53.487717)rotate(90)" class="a"/>
    <rect y="1551.2" x="53.5" height="70" width="1470" transform="translate(1620.1394 -53.487717)rotate(90)" class="a"/>
  <g transform="matrix(0.98137188 0 0 0.96494387 -1846.32 -355.93328)" fill="#3e000c">
    <path d="m2552.9 490.3c0.7-3.1-0.5-7-2.7-7.3-8.3-0.8-14.4 20.3-28 34.5 1-2.2 2.2-4.3 3.4-6.1-0.2-0.3-0.3-0.5-0.5-0.8-2.1 6.2-9.1 12.5-13.2 15.6 21.9-12.9 40.4-31.1 40.9-35.8z" class="b"/>
    <path d="m3232.2 1021.8c2.2 1 4.2 2.2 6 3.5 0.3-0.2 0.5-0.3 0.8-0.5-6.1-2.1-12.3-9.3-15.3-13.4 12.7 22.3 30.5 41.1 35.2 41.6 3 0.7 6.9-0.6 7.2-2.8 0.8-8.5-19.9-14.6-34-28.4z" class="b"/>
    <path d="m2115.6 1778.3c12.7 0.8 21.9-20.3 42.5-34.5-1.5 2.2-3.3 4.3-5.2 6.1 0.2 0.3 0.5 0.5 0.7 0.8 3.1-6.2 13.9-12.5 20-15.6-33.4 12.9-61.4 31.1-62.2 35.8-1.1 3.1 0.8 7 4.1 7.3z" class="b"/>
    <path d="m2026.4 651.4c-2.2-1.5-4.2-3.3-6-5.3-0.3 0.2-0.5 0.5-0.8 0.7 6.1 3.2 12.3 14.1 15.3 20.4-12.7-33.9-30.5-62.5-35.2-63.3-3-1.1-6.9 0.8-7.2 4.2-0.8 12.9 19.9 22.3 34 43.3z" class="b"/>
    <path d="m2026.4 1239.4c-2.2-1-4.2-2.2-6-3.5-0.3 0.2-0.5 0.3-0.8 0.5 6.1 2.1 12.3 9.3 15.3 13.4-12.7-22.3-30.5-41.1-35.2-41.6-3-0.7-6.9 0.6-7.2 2.8-0.8 8.5 19.9 14.6 34 28.4z" class="b"/>
    <path d="m3142.9 482.9c-12.7-0.8-21.9 20.3-42.5 34.5 1.5-2.2 3.3-4.3 5.2-6.1-0.2-0.3-0.5-0.5-0.7-0.8-3.1 6.2-13.9 12.5-20 15.6 33.4-12.9 61.4-31.1 62.2-35.8 1.1-3.1-0.8-7-4.1-7.3z" class="b"/>
    <path d="m3232.2 1609.7c2.2 1.5 4.2 3.3 6 5.3 0.3-0.2 0.5-0.5 0.8-0.7-6.1-3.2-12.3-14.1-15.3-20.4 12.7 33.9 30.5 62.5 35.2 63.3 3 1.1 6.9-0.8 7.2-4.2 0.8-12.9-19.9-22.3-34-43.3z" class="b"/>
    <path d="m2705.6 1771c-0.7 3.1 0.5 7 2.7 7.3 8.3 0.8 14.4-20.3 28-34.5-1 2.2-2.2 4.3-3.4 6.1 0.2 0.3 0.3 0.5 0.5 0.8 2.1-6.2 9.1-12.5 13.2-15.6-21.9 12.9-40.4 31.1-40.9 35.8z" class="b"/>
    <path d="m1947.2 1167c41.1-16.3 82.2 55.6 87.1 62.1-13.9-25.9-38-72.9-74.2-78.9-19.1-3.3-28.5 13.3-17.8 23.8-7.3 1.7-15.5 3.9-21.2 10.9-8.1 10-6.7 26.9 7.2 33.4 11.6 4.3 25.5-0.5 24.5-11.7-0.8-11.4-13.1-11.5-16.8-9-3.8 2.6-5.9 8.5 1.7 11.3-19.2 4.7-24.7-20.2 4.8-23.6 25.8-1.3 48.3 14.7 50.1 16.5-0.4 0-1.1 0-1.5 0-9.8-8.5-26.4-10.7-29.3-3.5-2.6 7 6 11 11.4 8.3 7.2-3-0.3-11.4-4.9-4.3-4.7-3.7 4.8-11.3 20.4 0.3-7 5-0.7 15.1 8.6 19.8-30-6.4-24.5 16.6-43.9 12.6 19.7 8.7 33.1-15.6 65.7 0.3 0.1 0.2 0.2 0.6 0.2 0.8-3-2.2-16.5-7.3-28-4.9-15.5 3.3-19.8 18-5.9 24.3 6.6 3 14.4 1.6 17.2-5.4-2.6-0.2-5.2-1.1-6.7-2.6-10.4-9.8 29.3-18.7 46.7 18.6-15.7-17.7-31.1-2.3-24 5.6 5 5.8 16.4 3.6 15.1-2.3-0.3-1.6-3.2-4.4-9-1.8-0.6-5.9 11.8-8.3 20.1 5 2.4 3.7 3.2 7.7 4.5 11.6 26.4 92.8-52.9 87.5-48.6 72.6 3.8 2.2 7.2 0 8.4-1.5 3.9-5-9-11.4-16.6-6.1-11.8 8.6 4.3 26.7 26.7 24.1 44.2-5.8 60.5-81.7 6-155-16.3-21.7-41.7-46.7-77.8-45.1-9.6-6.1-0.4-20 26.5-7.9-8.7-3.1-21.7-6.8-26.9 1.5zm52.5 41.2c4.7 0.5 22.5 19.3 35.2 41.6-3-4.1-9.2-11.3-15.3-13.4 0.3-0.2 0.5-0.3 0.8-0.5 1.8 1.3 3.8 2.5 6 3.5-14-13.8-34.8-19.9-34-28.4 0.4-2.2 4.2-3.5 7.2-2.8z" class="b"/>
    <path d="m1949.4 1062.1c7.1-6.2 3.7-22.3-14-20.9-25 2.1-29.1 39.8 6.8 45.8-15.5 16.2 9.8 39.6 45.8 10.4 17.9-14.6 34.8-43.9 46.2-65.4-2.6 3.3-46.9 79.3-87 62.1 2.9 5 11.2 8.1 27.9 1-24.3 12.4-38.3 0.8-27.6-7.4 77.2 4 146.6-136.8 94.7-188.2-26.1-25.6-61.6-4.3-51.6 10.1 4.2 6.2 17.3 4.8 19.2-1.2 1.1-2.9-3.8-7-9-4.3-2.4-17.1 79.5-17.1 46.4 79.7-5.4 14.5-21.9 18.9-22.4 9.5 7.9 4.7 12.7-4.2 5.2-6.8-7.7-2.5-15.6 4.1-12.7 10.1 3.3 7.4 12.8 8.3 19 4.1 2.7-1.6 4.4-3.7 6.3-5.6-6.9 13.7-20.1 29.4-41.3 26.6-11.5-1.3-7.5-10.2 1.5-10.7-3.3-6.7-9.4-8-15.3-6.1-19.4 6.2-10 29.2 16.6 25.2 14.5-2.2 24.1-9.2 30.3-18.1-0.6 1.8-12.4 23.1-32 40-3.1 2.6-16.4 1.8-6.2-8.5 4-4.2 13.4-8.1 19.7-13.3 3.6-2.4 6.7-5 9.9-7.6-0.1-0.3-0.9-0.7-1.1 0-34.7 22.4-50.6-5.4-70.9 3.5 9.5-1.5 10.5 0.3 15.9 5.9 6.6 7.2 15.9 9.3 27.3 6.9-11.7 6.4-14 15.9-8.4 19.6-15 11.8-25.2 4.1-20.4 0.3 0.4 1.7 2.9 3.4 5.6 2.6 3.3-1.5 2.7-5.1-0.3-6.5-3.3-2-8.9-0.9-10.7 1.7-7.5 10 11.4 16.9 28.4 3 0.3 0 1 0 1.4 0-10.2 8.8-40.9 22.7-61.5 13.6-15.4-6.9-10.8-24.1 6.6-20.6-13.4 5.3 1.7 18.8 11.7 9.9z" class="b"/>
    <path d="m1985.3 1366.1c7.9 8.1 21.9 9.2 26 8.4-29.3-0.6-30.3-29-11.5-30.5 11-1.1 23 7.3 13.7 15.1 10.5 3 19.1-10.3 4.1-17.2-18.1-8.1-42 2.6-35.3 19.6-5.2-3-13.8-1.3-11.7 4.4 0.6 1.8 3.8 3.2 6.4 2.3 3.9-1.1 1.9-6.5-3-3.1-1.1-3.1 5.3-5.3 11.2 1z" class="b"/>
    <path d="m1973.6 892.9c-7.1 2-2.5 12 8.6 6.9-1.6 4.1-1.4 8.6 0.9 12.6 9.7 16.3 45.6 9.5 42.3-4.2-1.2-4.4-5.4-7.4-12-6.2 13.3 13.5-20.4 23.2-25.8 6.2-3.2-9.4 5-20.5 24.1-21.6-20-1.3-26.7 9.7-30.4 11.6-4.7 2.1-8 0.5-7.3-2 7.1 3.9 6.4-5.2-0.4-3.2z" class="b"/>
    <path d="m2011 1072.8c-18 31.9-49.4 39.7-36 49.4-3.1-7.7 4.1-7.6 14.8-12.4-11.6 12.2-11.2 29.8 0 41.5-12.5-5.4-16.8-4.7-15.1-12.1-12.3 8.8 15.5 16.1 36.3 48.9-0.1-0.2-12.7-28.3-16.8-33.8-10.2-16.1-8.3-36.5 1.4-49.6 4.3-7.3 15.2-31.8 15.3-32z" class="b"/>
    <path d="m2004.5 883c46.8-5.1 62.1 39.9 58.2 85.2-7.8 70.6-70.1 93.7-60 179.9 1.8 15.5 6.9 30.7 14.5 45.4 14.9 28.5 67.2 90.6 38.2 155.1-16 35.3-42.2 30.4-50.9 29.6l21.8 8.1c47.4-10.7 59.6-78.6 36.3-133.8-13.3-31.6-35-54.2-44.3-83.7-7.9-23.7-7.3-54.6 0-76.3 13.7-43.9 53.9-71.3 56.1-137.8-1.1-51.9-24.5-75-48.2-79.8l-21.8 8.1z" class="b"/>
    <path d="m2028.3 1357.3c0.8 1.3 3.3 2.1 5.3 1.4 3.3-1.2 2.7-5.4-1.2-5.8-3.5-0.4-5.3 2.6-4 4.5z" class="b"/>
    <path d="m2032.3 902.2c-6.6-0.6-5.3 7.9 1 5.9 3.7-1.1 3.2-5.5-1-5.9z" class="b"/>
    <path d="m2039.4 1353.8c3.3-0.8 3-4.7-0.5-5.2-5.7-0.7-4.9 6.6 0.5 5.2z" class="b"/>
    <path d="m2038.8 907.2c-6-0.6-4.4 6.8 0.8 5.1 3.1-0.9 2.7-4.6-0.8-5.1z" class="b"/>
    <path d="m2043.7 1348.3c2.9-0.8 2.6-4.1-0.4-4.6-5.3-0.9-4.7 6.1 0.4 4.6z" class="b"/>
    <path d="m2043.2 912.7c-5.2-0.7-4.5 6.1 0.4 4.7 3.1-0.7 2.8-4.3-0.4-4.7z" class="b"/>
    <path d="m2047.4 1342.5c2.2-1.1 1.4-4-1.5-4.2-5.3-0.1-2.8 6.6 1.5 4.2z" class="b"/>
    <path d="m2045.9 918.2c-5.4-0.1-2.7 6.7 1.6 4.1 2.1-1.1 1.3-4-1.6-4.1z" class="b"/>
    <path d="m2049.5 1336.7c2.2-1 1.4-3.9-1.4-3.9-4.7 0-2.6 5.9 1.4 3.9z" class="b"/>
    <path d="m2048.1 924.1c-2.3-0.1-3.4 1.9-2.4 3.1 0.7 1.1 3.3 1.4 4.3 0.3 1.6-1.1 0.5-3.5-1.9-3.5z" class="b"/>
    <path d="m2050.7 1331.2c2.4-0.7 1.8-3.6-0.9-3.7-4.2-0.4-2.9 5.1 0.9 3.7z" class="b"/>
    <path d="m2049.7 929.8c-4.6-0.1-2.3 5.6 1.3 3.6 1.9-0.9 1.3-3.5-1.3-3.6z" class="b"/>
    <path d="m2051.3 1325.5c1.9-0.7 1.7-2.9-0.4-3.3-4.3-0.7-3.1 4.8 0.4 3.3z" class="b"/>
    <path d="m2050.8 935.4c-4.3-0.6-2.8 5 0.6 3.3 1.8-0.7 1.5-3-0.6-3.3z" class="b"/>
    <path d="m2052.1 1320.2c1.3-0.7 0.6-2.6-1.2-2.5-3.7 0.1-1 4.4 1.2 2.5z" class="b"/>
    <path d="m2050.9 940.6c-1.6 0.1-2.4 1.5-1.4 2.3 0.7 0.8 2.7 0.7 3.1-0.2 0.6-0.8-0.2-2.1-1.7-2.1z" class="b"/>
    <path d="m2052.3 1315.6c1.1-0.6 0.6-2.2-0.9-2.1-3.1-0.3-1.5 3.8 0.9 2.1z" class="b"/>
    <path d="m2052.4 1310.6c-0.5-1.1-3-0.5-2.4 0.6 0.2 1.3 3.2 0.6 2.4-0.6z" class="b"/>
    <path d="m2051.4 951.3c0.5-0.4 1.3-0.8 1.1-1.4 0-1.9-4.9 0.1-1.1 1.4z" class="b"/>
    <path d="m2051.3 945.3c-1.5-0.1-2.1 1.3-1.3 2 0.5 0.7 2.2 0.6 2.7-0.1 0.6-0.7 0-1.9-1.4-1.8z" class="b"/>
    <path d="m2026.4 1386.2-21.8-8.1c0 0 11.4 8 21.8 8.1z" class="b"/>
    <path d="m2004.5 883 21.8-8.1c-12.8 1.7-21.8 8.1-21.8 8.1z" class="b"/>
    <path d="m2489.4 536.3c-3.6 2.4-7.6 3.3-11.4 4.6-91.2 26.9-86-53.8-71.4-49.4-2.1 3.9 0 7.3 1.5 8.6 4.9 4 11.2-9.1 6-16.9-8.5-12-26.2 4.4-23.7 27.2 5.7 45 80.4 61.5 152.4 6.1 21.3-16.5 45.9-42.4 44.3-79.1 6-9.7 19.6-0.5 7.8 26.9 3.1-8.9 6.7-22-1.5-27.3 16 41.8-54.7 83.6-61.1 88.6 25.5-14.1 71.6-38.7 77.6-75.5 3.2-19.4-13-28.9-23.4-18.1-1.7-7.4-3.8-15.8-10.7-21.5-9.8-8.2-26.5-6.9-32.8 7.3-4.3 11.8 0.5 25.9 11.5 24.9 11.2-0.8 11.3-13.3 8.9-17.1-2.6-3.9-8.4-6-11.2 1.7-4.6-19.5 19.8-25.1 23.2 4.9 1.3 26.3-14.4 49.1-16.3 51 0-0.4 0-1.1 0-1.5 8.4-10 10.5-26.9 3.4-29.8-6.9-2.6-10.9 6.1-8.2 11.6 3 7.3 11.2-0.4 4.2-5 3.6-4.8 11.2 4.9-0.3 20.8-5-7.1-14.9-0.7-19.4 8.8 6.3-30.5-16.3-24.9-12.4-44.6-8.5 20 15.3 33.6-0.3 66.9-0.2 0.1-0.6 0.2-0.8 0.2 2.1-3.1 7.2-16.8 4.8-28.5-3.3-15.7-17.7-20.2-23.9-6-3 6.7-1.6 14.6 5.3 17.5 0.2-2.7 1.1-5.3 2.6-6.9 9.6-10.6 18.4 29.8-18.3 47.5 2-1.8 4-3.6 5.6-6.3 7.6-11.7-3.6-25.1-11.1-18.2-5.7 5.1-3.6 16.7 2.2 15.4 1.5-0.3 4.4-3.1 1.7-9.1 1.8-0.2 3.7 1.1 4.4 3.9 1.9 6.4-5.2 13.9-9.4 16.6zm35.8-25.7c0.2 0.3 0.3 0.5 0.5 0.8-1.3 1.9-2.4 3.9-3.4 6.1 13.6-14.3 19.6-35.3 28-34.5 2.2 0.4 3.5 4.3 2.7 7.3-0.5 4.8-19 22.9-40.9 35.8 4-3.1 11.1-9.4 13.2-15.6z" class="b"/>
    <path d="m2726.2 525.5c-3.3-2.7-78-47.7-61-88.5-4.9 3-7.9 11.4-1 28.3-12.2-24.7-0.8-39 7.3-28.1-3.9 78.5 134.5 149.1 185.1 96.3 25.2-26.6 4.2-62.6-10-52.5-6.1 4.3-4.7 17.6 1.2 19.5 2.8 1.1 6.9-3.9 4.2-9.1 16.8-2.4 16.9 80.8-78.3 47.2-14.2-5.5-18.6-22.3-9.4-22.7-4.6 8 4.1 13 6.7 5.3 2.4-7.8-4-15.8-9.9-12.9-7.2 3.3-8.2 13-4.1 19.3 1.5 2.7 3.6 4.5 5.6 6.4-13.4-7.1-28.9-20.4-26.2-42 1.3-11.7 10.1-7.6 10.6 1.5 6.6-3.3 7.9-9.6 6-15.6-6.1-19.8-28.7-10.2-24.8 16.9 2.2 14.8 9 24.5 17.8 30.8-1.7-0.6-22.7-12.6-39.3-32.5-2.6-3.2-1.8-16.6 8.3-6.3 4.1 4 8 13.6 13.1 20.1 2.3 3.6 4.9 6.8 7.5 10 0.3-0.1 0.7-0.9 0-1.1-22-35.3 5.3-51.5-3.5-72.1 1.5 9.6-0.3 10.6-5.8 16.2-7 6.7-9.2 16.2-6.8 27.8-6.3-11.9-15.6-14.2-19.3-8.5-11.6-15.3-4-25.6-0.3-20.7-1.7 0.4-3.4 3-2.5 5.7 1.4 3.3 5 2.8 6.4-0.3 2-3.3 0.9-9-1.6-10.9-9.8-7.6-16.6 11.6-2.9 28.9 0 0.3 0 1 0 1.4-8.7-10.4-22.3-41.6-13.3-62.5 6.8-15.6 23.7-11 20.2 6.7-5.2-13.6-18.5 1.7-9.8 11.9 6.1 7.3 21.9 3.7 20.5-14.3-2.1-25.4-39.1-29.6-45 6.9-15.9-15.8-38.9 10-10.2 46.6 14.3 18.2 43.2 35.4 64.3 47z" class="b"/>
    <path d="m2389.5 502c0.6-29.8 28.5-30.8 30-11.7 1.1 11.2-7.2 23.4-14.8 14-3 10.7 10.1 19.4 16.9 4.2 8-18.4-2.6-42.7-19.3-35.9 3-5.3 1.2-14-4.3-11.9-1.8 0.6-3.2 3.9-2.2 6.6 1.1 3.9 6.4 2 3-3 3-1.1 5.2 5.4-1 11.4-8 8-9.1 22.3-8.3 26.4z" class="b"/>
    <path d="m2848 516.5c4.3-1.2 7.2-5.5 6.1-12.2-13.2 13.5-22.9-20.7-6.1-26.3 9.3-3.2 20.1 5.1 21.3 24.5 1.2-20.4-9.6-27.1-11.4-30.9-2.1-4.8-0.5-8.1 2-7.4-3.9 7.2 5.1 6.5 3.2-0.4-1.9-7.3-11.8-2.6-6.7 8.8-4.1-1.6-8.5-1.4-12.4 1-16.1 9.9-9.4 46.4 4.2 43z" class="b"/>
    <path d="m2572.7 501.8c0.2-0.1 27.8-12.9 33.2-17 15.8-10.4 35.8-8.4 48.7 1.5 7.2 4.3 31.2 15.5 31.4 15.5-31.3-18.3-39-50.3-48.6-36.6 7.6-3.2 7.5 4.1 12.2 15-12-11.8-29.3-11.4-40.8 0 5.3-12.7 4.6-17.1 11.9-15.3-8.6-12.5-15.8 15.8-48.1 36.9z" class="b"/>
    <path d="m2377.9 517.4c10.5 48.2 77.3 60.6 131.5 36.9 31.1-13.6 53.3-35.6 82.3-45 23.3-8 53.6-7.5 75 0 43.2 13.9 70.1 54.8 135.5 57.1 51-1.2 73.7-24.9 78.4-49l-7.9-22.2c5 47.6-39.2 63.1-83.7 59.2-69.4-7.9-92.1-71.3-176.9-61.1-15.2 1.8-30.2 7-44.6 14.8-28 15.2-89.1 68.4-152.5 38.9-34.7-16.2-29.9-42.9-29.1-51.8l-7.9 22.2z" class="b"/>
    <path d="m2406.3 519.4c-1.3 0.8-2.1 3.4-1.3 5.4 1.2 3.4 5.3 2.8 5.7-1.3 0.4-3.6-2.6-5.4-4.4-4.1z" class="b"/>
    <path d="m2853.9 523.5c0.6-6.7-7.7-5.3-5.8 1 1.1 3.7 5.4 3.2 5.8-1z" class="b"/>
    <path d="m2409.8 530.7c0.8 3.3 4.6 3.1 5.1-0.5 0.7-5.8-6.5-5-5.1 0.5z" class="b"/>
    <path d="m2844 530.9c0.9 3.2 4.6 2.8 5-0.8 0.6-6.1-6.7-4.4-5 0.8z" class="b"/>
    <path d="m2419.8 534.6c0.8-5.4-6-4.7-4.6 0.4 0.8 2.9 4 2.7 4.6-0.4z" class="b"/>
    <path d="m2838.9 534.9c0.7 3.1 4.2 2.9 4.6-0.4 0.7-5.3-6-4.5-4.6 0.4z" class="b"/>
    <path d="m2420.9 538.9c1.1 2.2 4 1.4 4.1-1.5 0.1-5.4-6.5-2.9-4.1 1.5z" class="b"/>
    <path d="m2838.1 537.3c0.1-5.5-6.6-2.7-4.1 1.6 1.1 2.1 3.9 1.3 4.1-1.6z" class="b"/>
    <path d="m2430.5 539.5c0-4.8-5.8-2.7-3.9 1.5 1 2.3 3.8 1.5 3.9-1.5z" class="b"/>
    <path d="m2832.3 539.6c0.1-2.4-1.9-3.5-3.1-2.4-1.1 0.7-1.3 3.3-0.3 4.4 1.1 1.6 3.4 0.6 3.4-2z" class="b"/>
    <path d="m2435.7 541.2c0.4-4.2-5-3-3.6 0.9 0.7 2.4 3.6 1.9 3.6-0.9z" class="b"/>
    <path d="m2826.7 541.2c0.1-4.7-5.5-2.4-3.5 1.3 0.9 2 3.4 1.3 3.5-1.3z" class="b"/>
    <path d="m2440.9 542.4c0.6-4.3-4.7-3.1-3.3 0.4 0.7 2 2.9 1.8 3.3-0.4z" class="b"/>
    <path d="m2821.2 542.3c0.6-4.4-4.9-2.9-3.3 0.6 0.7 1.9 2.9 1.5 3.3-0.6z" class="b"/>
    <path d="m2445.3 542.3c-0.1-3.8-4.3-1-2.5 1.2 0.7 1.3 2.5 0.6 2.5-1.2z" class="b"/>
    <path d="m2814 544.1c0.8 0.6 2-0.2 2.1-1.7-0.1-1.6-1.5-2.4-2.3-1.4-0.8 0.7-0.6 2.8 0.2 3.1z" class="b"/>
    <path d="m2449.5 542.8c0.3-3.2-3.7-1.6-2.1 1 0.6 1.1 2.1 0.6 2.1-1z" class="b"/>
    <path d="m2452.3 543.9c1.1-0.5 0.5-3-0.6-2.5-1.3 0.2-0.6 3.3 0.6 2.5z" class="b"/>
    <path d="m2806.9 544c1.9 0-0.1-4.9-1.3-1.1 0.4 0.5 0.7 1.3 1.3 1.1z" class="b"/>
    <path d="m2809.7 544.2c0.7 0.6 1.8 0 1.8-1.4 0.1-1.5-1.3-2.1-1.9-1.3-0.7 0.6-0.6 2.3 0.1 2.7z" class="b"/>
    <path d="m2377.9 517.4 7.9-22.2c0 0-7.9 11.6-7.9 22.2z" class="b"/>
    <path d="m2872.7 495.2 7.9 22.2c-1.7-13-7.9-22.2-7.9-22.2z" class="b"/>
    <path d="m3311.4 1094.2c-40.2 16-79.2-51.7-87.1-62.1 13.9 25.9 38 72.9 74.2 78.9 19.1 3.3 28.5-13.3 17.8-23.8 7.3-1.7 15.5-3.9 21.2-10.9 8.1-10 6.7-26.9-7.2-33.4-11.6-4.3-25.5 0.5-24.5 11.7 0.8 11.4 13.1 11.5 16.8 9 3.8-2.6 5.9-8.5-1.7-11.3 19.2-4.7 24.7 20.2-4.8 23.6-25.8 1.3-48.3-14.7-50.1-16.5 0.4 0 1.1 0 1.5 0 9.8 8.5 26.4 10.7 29.3 3.5 2.6-7-6-11-11.4-8.3-7.2 3 0.3 11.4 4.9 4.3 4.7 3.7-4.8 11.4-20.4-0.3 7-5 0.7-15.1-8.6-19.8 30 6.4 24.5-16.6 43.9-12.6-19.7-8.7-33.1 15.6-65.7-0.3-0.1-0.2-0.2-0.6-0.2-0.8 3 2.2 16.5 7.3 28 4.9 15.5-3.3 19.8-18 5.9-24.3-6.6-3-14.4-1.6-17.2 5.4 2.6 0.2 5.2 1.1 6.7 2.6 10.4 9.8-29.3 18.7-46.7-18.6 15.7 17.7 31.1 2.3 24-5.6-5-5.8-16.4-3.6-15.1 2.3 0.3 1.5 3.1 4.5 9 1.8 0.6 5.9-11.8 8.3-20.1-5-2.4-3.7-3.2-7.7-4.5-11.6-26.4-92.8 52.9-87.5 48.6-72.6-3.8-2.2-7.2 0-8.4 1.5-3.9 5 9 11.4 16.6 6.1 11.8-8.6-4.3-26.7-26.7-24.1-44.2 5.8-60.5 81.7-6 155 16.3 21.7 41.7 46.7 77.8 45.1 9.6 6.1 0.4 20-26.5 7.9 8.7 3.1 21.7 6.8 26.9-1.5zm-52.5-41.2c-4.7-0.5-22.5-19.3-35.2-41.6 3 4.1 9.2 11.3 15.3 13.4-0.3 0.2-0.5 0.3-0.8 0.5-1.8-1.3-3.8-2.5-6-3.5 14 13.8 34.8 19.9 34 28.4-0.4 2.2-4.2 3.5-7.2 2.8z" class="b"/>
    <path d="m3309.1 1199c-7.1 6.2-3.7 22.3 14 20.9 25-2.1 29.1-39.8-6.8-45.8 15.5-16.2-9.8-39.6-45.8-10.4-17.9 14.6-34.8 43.9-46.2 65.4 2.6-3.3 46.9-79.3 87-62.1-2.9-5-11.2-8.1-27.9-1 24.3-12.4 38.3-0.8 27.6 7.4-77.2-4-146.6 136.8-94.7 188.2 26.1 25.6 61.6 4.3 51.6-10.1-4.2-6.2-17.3-4.8-19.2 1.2-1.1 2.9 3.8 7 9 4.3 2.4 17.1-79.5 17.1-46.4-79.7 5.4-14.5 21.9-18.9 22.4-9.5-7.9-4.7-12.7 4.2-5.2 6.8 7.7 2.5 15.6-4.1 12.7-10.1-3.3-7.4-12.8-8.3-19-4.1-2.7 1.6-4.4 3.7-6.3 5.6 6.9-13.7 20.1-29.4 41.3-26.6 11.5 1.3 7.5 10.2-1.5 10.7 3.3 6.7 9.4 8 15.3 6.1 19.4-6.2 10-29.2-16.6-25.2-14.5 2.2-24.1 9.2-30.3 18.1 0.6-1.8 12.4-23.1 32-40 3.1-2.6 16.4-1.8 6.2 8.5-4 4.2-13.4 8.1-19.7 13.3-3.6 2.4-6.7 5-9.9 7.6 0.1 0.3 0.9 0.7 1.1 0 34.7-22.4 50.6 5.4 70.9-3.5-9.5 1.5-10.5-0.3-15.9-5.9-6.6-7.2-15.9-9.3-27.3-6.9 11.7-6.4 14-15.9 8.4-19.6 15-11.8 25.2-4.1 20.4-0.3-0.4-1.7-2.9-3.4-5.6-2.6-3.3 1.5-2.7 5.1 0.3 6.5 3.3 2 8.9 0.9 10.7-1.7 7.5-10-11.4-16.9-28.4-3-0.3 0-1 0-1.4 0 10.2-8.8 40.9-22.7 61.5-13.6 15.4 6.9 10.8 24.1-6.6 20.6 13.4-5.3-1.7-18.8-11.7-9.9z" class="b"/>
    <path d="m3273.3 895.1c-7.9-8.1-21.9-9.2-26-8.4 29.3 0.6 30.3 29 11.5 30.5-11 1.1-23-7.3-13.7-15.1-10.5-3-19.1 10.3-4.1 17.2 18.1 8.1 42-2.6 35.3-19.6 5.2 3 13.8 1.3 11.7-4.4-0.6-1.8-3.8-3.2-6.4-2.3-3.9 1.1-1.9 6.5 3 3.1 1.1 3.1-5.3 5.3-11.2-1z" class="b"/>
    <path d="m3284.9 1368.3c7.1-2 2.5-12-8.6-6.9 1.6-4.1 1.4-8.6-0.9-12.6-9.7-16.3-45.6-9.5-42.3 4.2 1.2 4.4 5.4 7.4 12 6.2-13.3-13.5 20.4-23.3 25.8-6.2 3.2 9.4-5 20.5-24.1 21.6 20 1.3 26.7-9.7 30.4-11.6 4.7-2.1 8-0.5 7.3 2-7.1-3.9-6.4 5.2 0.4 3.2z" class="b"/>
    <path d="m3247.5 1188.4c18-31.9 49.4-39.7 36-49.4 3.1 7.7-4.1 7.6-14.8 12.4 11.6-12.2 11.2-29.8 0-41.5 12.5 5.4 16.8 4.7 15.1 12.1 12.3-8.8-15.5-16.1-36.3-48.9 0.1 0.2 12.7 28.3 16.8 33.8 10.2 16.1 8.3 36.5-1.4 49.6-4.3 7.3-15.2 31.8-15.3 32z" class="b"/>
    <path d="m3254 1378.2c-46.8 5.1-62.1-39.9-58.2-85.2 7.8-70.6 70.1-93.7 60-179.9-1.8-15.5-6.9-30.7-14.5-45.4-14.9-28.5-67.2-90.6-38.2-155.1 16-35.3 42.2-30.4 50.9-29.6l-21.8-8.1c-47.4 10.7-59.6 78.6-36.3 133.8 13.3 31.6 35 54.2 44.3 83.7 7.9 23.7 7.3 54.6 0 76.3-13.7 43.9-53.9 71.3-56.1 137.8 1.1 51.9 24.5 75 48.2 79.8l21.8-8.1z" class="b"/>
    <path d="m3230.2 903.9c-0.8-1.3-3.3-2.1-5.3-1.4-3.3 1.2-2.7 5.4 1.2 5.8 3.5 0.4 5.3-2.6 4-4.5z" class="b"/>
    <path d="m3226.2 1359c6.6 0.6 5.3-7.9-1-5.9-3.7 1.1-3.2 5.5 1 5.9z" class="b"/>
    <path d="m3219.2 907.3c-3.3 0.8-3 4.7 0.5 5.2 5.7 0.7 4.9-6.6-0.5-5.2z" class="b"/>
    <path d="m3219.7 1354c6 0.6 4.4-6.8-0.8-5.1-3.1 0.9-2.7 4.6 0.8 5.1z" class="b"/>
    <path d="m3214.9 912.9c-2.9 0.8-2.6 4.1 0.4 4.6 5.3 0.9 4.7-6.1-0.4-4.6z" class="b"/>
    <path d="m3215.4 1348.5c5.2 0.7 4.4-6.1-0.4-4.7-3.1 0.7-2.8 4.3 0.4 4.7z" class="b"/>
    <path d="m3211.1 918.7c-2.2 1.1-1.4 4 1.5 4.2 5.3 0.1 2.8-6.6-1.5-4.2z" class="b"/>
    <path d="m3212.7 1343c5.4 0.1 2.7-6.7-1.6-4.1-2.1 1.1-1.3 4 1.6 4.1z" class="b"/>
    <path d="m3209 924.5c-2.2 1-1.4 3.9 1.4 3.9 4.7 0 2.6-5.9-1.4-3.9z" class="b"/>
    <path d="m3210.4 1337.1c2.3 0.1 3.4-1.9 2.4-3.1-0.7-1.1-3.3-1.4-4.3-0.3-1.6 1.1-0.6 3.5 1.9 3.5z" class="b"/>
    <path d="m3207.8 930c-2.4 0.7-1.8 3.6 0.9 3.7 4.2 0.4 2.9-5.1-0.9-3.7z" class="b"/>
    <path d="m3208.8 1331.4c4.6 0.1 2.3-5.6-1.3-3.6-1.9 0.9-1.3 3.5 1.3 3.6z" class="b"/>
    <path d="m3207.2 935.7c-1.9 0.7-1.7 2.9 0.4 3.3 4.3 0.7 3.1-4.8-0.4-3.3z" class="b"/>
    <path d="m3207.7 1325.7c4.3 0.6 2.8-5-0.6-3.3-1.8 0.7-1.5 3 0.6 3.3z" class="b"/>
    <path d="m3206.4 941c-1.3 0.7-0.6 2.6 1.2 2.5 3.7-0.1 1-4.4-1.2-2.5z" class="b"/>
    <path d="m3207.7 1320.6c1.6-0.1 2.4-1.5 1.4-2.3-0.7-0.8-2.7-0.7-3.1 0.2-0.6 0.8 0.2 2.1 1.7 2.1z" class="b"/>
    <path d="m3206.2 945.6c-1.1 0.6-0.6 2.2 0.9 2.1 3.1 0.3 1.5-3.8-0.9-2.1z" class="b"/>
    <path d="m3206.1 950.6c0.5 1.1 3 0.5 2.4-0.6-0.2-1.3-3.2-0.6-2.4 0.6z" class="b"/>
    <path d="m3207.1 1309.9c-0.5 0.4-1.3 0.8-1.1 1.4 0 1.9 4.9-0.1 1.1-1.4z" class="b"/>
    <path d="m3207.3 1315.9c1.5 0.1 2.1-1.3 1.3-2-0.5-0.7-2.2-0.6-2.7 0.1-0.6 0.7 0 1.9 1.4 1.8z" class="b"/>
    <path d="m3232.2 874.9 21.8 8.1c0 0-11.4-8-21.8-8.1z" class="b"/>
    <path d="m3254 1378.2-21.8 8.1c12.8-1.7 21.8-8.1 21.8-8.1z" class="b"/>
    <path d="m2769.1 1724.9c3.6-2.4 7.6-3.3 11.4-4.6 91.2-26.9 86 53.8 71.4 49.4 2.1-3.9 0-7.3-1.5-8.6-4.9-4-11.2 9.1-6 16.9 8.5 12 26.2-4.4 23.7-27.2-5.7-45-80.4-61.5-152.4-6.1-21.3 16.5-45.9 42.4-44.3 79.1-6 9.7-19.6 0.5-7.8-26.9-3.1 8.9-6.7 22 1.5 27.3-16-41.8 54.7-83.6 61.1-88.6-25.5 14.1-71.6 38.7-77.6 75.5-3.2 19.4 13 28.9 23.4 18.1 1.7 7.4 3.8 15.8 10.7 21.5 9.8 8.2 26.5 6.9 32.8-7.3 4.3-11.8-0.5-25.9-11.5-24.9-11.2 0.8-11.3 13.3-8.9 17.1 2.6 3.9 8.4 6 11.2-1.7 4.6 19.5-19.8 25.1-23.2-4.9-1.3-26.3 14.4-49.1 16.3-51 0 0.4 0 1.1 0 1.5-8.4 10-10.5 26.9-3.4 29.8 6.9 2.6 10.9-6.1 8.2-11.6-3-7.3-11.2 0.4-4.2 5-3.6 4.8-11.2-4.9 0.3-20.8 5 7.1 14.9 0.7 19.4-8.8-6.3 30.5 16.3 25 12.4 44.6 8.5-20-15.3-33.6 0.3-66.9 0.2-0.1 0.6-0.2 0.8-0.2-2.1 3.1-7.2 16.8-4.8 28.5 3.3 15.7 17.7 20.2 23.9 6 3-6.7 1.6-14.6-5.3-17.5-0.2 2.7-1.1 5.3-2.6 6.9-9.6 10.6-18.4-29.8 18.3-47.5-2 1.8-4 3.6-5.6 6.3-7.6 11.7 3.6 25.1 11.1 18.2 5.7-5.1 3.6-16.7-2.2-15.4-1.6 0.3-4.4 3.2-1.7 9.1-5.8 0.6-8.1-12 5-20.5zm-35.8 25.7c-0.2-0.3-0.3-0.5-0.5-0.8 1.3-1.9 2.4-3.9 3.4-6.1-13.6 14.3-19.6 35.3-28 34.5-2.2-0.4-3.5-4.3-2.7-7.3 0.5-4.8 19-22.9 40.9-35.8-4 3.1-11.1 9.4-13.2 15.6z" class="b"/>
    <path d="m2532.4 1735.7c3.3 2.7 78 47.7 61 88.5 4.9-3 7.9-11.4 1-28.3 12.2 24.7 0.8 39-7.3 28.1 3.9-78.5-134.5-149.1-185.1-96.3-25.2 26.6-4.2 62.6 10 52.5 6.1-4.3 4.7-17.6-1.2-19.5-2.8-1.1-6.9 3.9-4.2 9.1-16.8 2.4-16.9-80.8 78.3-47.2 14.2 5.5 18.6 22.3 9.4 22.7 4.6-8-4.1-13-6.7-5.3-2.4 7.8 4 15.8 9.9 12.9 7.2-3.3 8.2-13 4.1-19.3-1.5-2.7-3.6-4.5-5.6-6.4 13.4 7.1 28.9 20.4 26.2 42-1.3 11.7-10 7.6-10.6-1.5-6.6 3.3-7.9 9.6-6 15.6 6.1 19.8 28.7 10.2 24.8-16.9-2.2-14.8-9-24.5-17.8-30.8 1.7 0.6 22.7 12.6 39.3 32.5 2.6 3.2 1.8 16.6-8.3 6.3-4.1-4-8-13.6-13.1-20.1-2.3-3.6-4.9-6.8-7.5-10-0.3 0.1-0.7 0.9 0 1.1 22 35.3-5.3 51.5 3.5 72.1-1.5-9.6 0.3-10.6 5.8-16.2 7-6.7 9.2-16.2 6.8-27.8 6.3 11.9 15.6 14.2 19.3 8.5 11.6 15.3 4 25.6 0.3 20.7 1.7-0.4 3.4-3 2.5-5.7-1.4-3.3-5-2.8-6.4 0.3-2 3.3-0.9 9 1.6 10.9 9.8 7.6 16.6-11.6 2.9-28.9 0-0.3 0-1 0-1.4 8.7 10.4 22.3 41.6 13.3 62.5-6.8 15.6-23.7 11-20.2-6.7 5.3 13.7 18.5-1.7 9.8-11.9-6.1-7.3-21.9-3.7-20.5 14.3 2.1 25.4 39.1 29.6 45-6.9 15.9 15.8 38.9-10 10.2-46.6-14.3-18.2-43.2-35.4-64.3-47z" class="b"/>
    <path d="m2869 1759.2c-0.6 29.8-28.5 30.8-30 11.7-1.1-11.2 7.2-23.4 14.8-14 3-10.7-10.1-19.4-16.9-4.2-8 18.4 2.6 42.7 19.3 35.9-3 5.3-1.2 14 4.3 11.9 1.8-0.6 3.2-3.9 2.2-6.6-1.1-3.9-6.4-2-3 3-3 1.1-5.2-5.4 1-11.4 8-8 9.1-22.3 8.3-26.4z" class="b"/>
    <path d="m2410.5 1744.7c-4.3 1.2-7.2 5.5-6.1 12.2 13.2-13.5 22.9 20.7 6.1 26.3-9.3 3.2-20.1-5.1-21.3-24.5-1.2 20.4 9.6 27.1 11.4 30.9 2.1 4.8 0.5 8.1-2 7.4 3.9-7.2-5.1-6.5-3.2 0.4 1.9 7.3 11.8 2.6 6.7-8.8 4.1 1.6 8.5 1.4 12.4-1 16.1-9.9 9.4-46.4-4.2-43z" class="b"/>
    <path d="m2685.8 1759.4c-0.2 0.1-27.8 12.9-33.2 17-15.8 10.4-35.8 8.4-48.7-1.5-7.2-4.3-31.2-15.5-31.4-15.5 31.3 18.3 39 50.3 48.6 36.6-7.6 3.2-7.5-4.1-12.2-15 12 11.8 29.3 11.4 40.8 0-5.3 12.7-4.6 17.1-11.9 15.3 8.6 12.5 15.8-15.8 48.1-36.9z" class="b"/>
    <path d="m2880.6 1743.8c-10.5-48.2-77.3-60.6-131.5-36.9-31.1 13.6-53.3 35.6-82.3 45-23.3 8-53.6 7.5-75 0-43.2-13.9-70.1-54.8-135.5-57.1-51 1.2-73.7 24.9-78.4 49l7.9 22.2c-5-47.6 39.2-63.1 83.7-59.2 69.4 7.9 92.1 71.3 176.9 61.1 15.2-1.8 30.2-7 44.6-14.8 28-15.2 89.1-68.4 152.5-38.9 34.7 16.2 29.9 42.9 29.1 51.8l7.9-22.2z" class="b"/>
    <path d="m2852.2 1741.8c1.3-0.8 2.1-3.4 1.3-5.4-1.2-3.4-5.3-2.8-5.7 1.3-0.4 3.6 2.6 5.4 4.4 4.1z" class="b"/>
    <path d="m2404.7 1737.7c-0.6 6.7 7.7 5.3 5.8-1-1.1-3.7-5.4-3.2-5.8 1z" class="b"/>
    <path d="m2848.8 1730.5c-0.8-3.3-4.6-3.1-5.1 0.5-0.7 5.8 6.5 5 5.1-0.5z" class="b"/>
    <path d="m2414.6 1730.3c-0.9-3.2-4.6-2.8-5 0.8-0.6 6.1 6.7 4.4 5-0.8z" class="b"/>
    <path d="m2838.8 1726.5c-0.8 5.4 6 4.7 4.6-0.4-0.8-2.9-4-2.7-4.6 0.4z" class="b"/>
    <path d="m2419.7 1726.3c-0.7-3.1-4.2-2.9-4.6 0.4-0.7 5.3 6 4.5 4.6-0.4z" class="b"/>
    <path d="m2837.6 1722.4c-1.1-2.2-4-1.4-4.1 1.5-0.1 5.4 6.5 2.9 4.1-1.5z" class="b"/>
    <path d="m2420.4 1723.9c-0.1 5.5 6.6 2.7 4.1-1.6-1.1-2.1-3.9-1.3-4.1 1.6z" class="b"/>
    <path d="m2828.1 1721.6c0 4.8 5.8 2.7 3.9-1.5-1-2.3-3.8-1.5-3.9 1.5z" class="b"/>
    <path d="m2426.3 1721.6c-0.1 2.4 1.9 3.5 3.1 2.4 1.1-0.7 1.3-3.3 0.3-4.4-1.1-1.6-3.4-0.6-3.4 2z" class="b"/>
    <path d="m2822.8 1720c-0.4 4.2 5 3 3.6-0.9-0.7-2.4-3.6-1.9-3.6 0.9z" class="b"/>
    <path d="m2431.8 1720c-0.1 4.7 5.5 2.4 3.5-1.3-0.9-2-3.4-1.3-3.5 1.3z" class="b"/>
    <path d="m2817.7 1718.8c-0.6 4.3 4.7 3.1 3.3-0.4-0.6-2-2.9-1.8-3.3 0.4z" class="b"/>
    <path d="m2437.4 1718.9c-0.6 4.4 4.9 2.9 3.3-0.6-0.7-1.9-2.9-1.5-3.3 0.6z" class="b"/>
    <path d="m2813.2 1718.8c0.1 3.8 4.3 1 2.5-1.2-0.7-1.3-2.5-0.6-2.5 1.2z" class="b"/>
    <path d="m2444.5 1717.1c-0.8-0.6-2 0.2-2.1 1.7 0.1 1.6 1.5 2.4 2.3 1.4 0.8-0.7 0.7-2.8-0.2-3.1z" class="b"/>
    <path d="m2809 1718.4c-0.3 3.2 3.7 1.6 2.1-1-0.6-1.1-2.1-0.6-2.1 1z" class="b"/>
    <path d="m2806.3 1717.3c-1.1 0.5-0.5 3 0.6 2.5 1.3-0.2 0.6-3.3-0.6-2.5z" class="b"/>
    <path d="m2451.7 1717.2c-1.9 0 0.1 4.9 1.3 1.1-0.4-0.5-0.7-1.3-1.3-1.1z" class="b"/>
    <path d="m2448.9 1717c-0.7-0.6-1.8 0.1-1.8 1.4-0.1 1.5 1.3 2.1 1.9 1.3 0.7-0.6 0.6-2.3-0.1-2.7z" class="b"/>
    <path d="m2880.6 1743.8-7.9 22.2c0 0 7.9-11.6 7.9-22.2z" class="b"/>
    <path d="m2385.8 1766-7.9-22.2c1.7 13 7.9 22.2 7.9 22.2z" class="b"/>
    <path d="m1947.2 541.2c15.8-9.6 34.6 5 46.9 18.9 21.4 28.8 34.8 64.9 40.2 75.6-13.9-39.5-38-110.9-74.2-120.1-19.1-5-28.5 20.2-17.8 36.3-7.3 2.6-15.5 5.9-21.2 16.6-8.1 15.2-6.7 41 7.2 50.8 11.6 6.6 25.5-0.8 24.5-17.9-0.8-17.4-13.1-17.6-16.8-13.8-3.8 4-5.9 12.9 1.7 17.3-19.2 7.1-24.7-30.7 4.8-35.9 25.8-2 48.3 22.3 50.1 25.2-0.4 0-1.1 0-1.5 0-9.8-13-26.4-16.2-29.3-5.3-2.6 10.7 6 16.8 11.4 12.7 7.2-4.6-0.3-17.4-4.9-6.5-4.7-5.6 4.8-17.3 20.4 0.5-7 7.7-0.7 23 8.6 30.1-12-3.9-21.1 0-26.9 9.3-5.5 8.1-6.6 13.2-17 9.9 19.7 13.2 33.1-23.7 65.7 0.5 0.1 0.3 0.2 0.9 0.2 1.2-3-3.3-16.5-11.2-28-7.4-15.5 5-19.8 27.4-5.9 36.9 6.6 4.6 14.4 2.4 17.2-8.2-2.6-0.4-5.2-1.7-6.7-4-10.4-14.9 29.3-28.5 46.7 28.3-15.7-27-31.1-3.5-24 8.5 5 8.8 16.4 5.5 15.1-3.5-0.4-2.5-2.7-4.7-5.3-4.5-1.5-0.1-2.6 1-3.7 1.8-0.6-9 11.8-12.6 20.1 7.7 2.4 5.6 3.2 11.8 4.5 17.7 26.4 141.2-52.9 133.1-48.6 110.5 0.5 0.5 1.1 1 1.7 1.4 2.8 0.8 5.5-1.3 6.8-3.7 3.9-7.6-9-17.3-16.6-9.2-11.8 13.1 4.3 40.6 26.7 36.6 44.2-8.8 60.5-124.4 6-236-16.3-33-41.7-71-77.8-68.6-9.6-9.3-0.4-30.4 26.5-12-10.9-5.9-22.1-9.3-26.9 2.3zm52.5 62.7c4.7 0.8 22.5 29.4 35.2 63.3-3-6.2-9.2-17.2-15.3-20.4 0.3-0.2 0.5-0.5 0.8-0.7 1.8 1.9 3.8 3.8 6 5.3-14-21-34.8-30.4-34-43.3 0.4-3.4 4.2-5.4 7.2-4.2z" class="b"/>
    <path d="m2011.2 857c-29.3-1-30.3-44.1-11.5-46.4 11-1.7 23 11.1 13.7 23 10.5 4.6 19.1-15.7 4.1-26.2-18.1-12.4-42 4-35.3 29.9-5.2-4.6-13.8-1.9-11.7 6.7 0.6 2.8 3.8 4.9 6.4 3.4 3.9-1.7 1.9-9.9-3-4.7-1.1-4.7 5.3-8 11.2 1.5 7.9 12.4 21.9 14.1 26 12.8z" class="b"/>
    <path d="m2032.4 824.1c-3.5-0.5-5.3 4-4 6.8 0.8 2 3.3 3.2 5.3 2.1 3.3-1.9 2.7-8.2-1.2-8.9z" class="b"/>
    <path d="m2039.4 825.6c3.3-1.3 3-7.1-0.5-7.9-5.7-1.1-4.9 10 0.5 7.9z" class="b"/>
    <path d="m2043.7 817.1c2.9-1.2 2.6-6.3-0.4-7-5.3-1.3-4.6 9.2 0.4 7z" class="b"/>
    <path d="m2043.5 807.7c0.8 1.3 2.8 1.7 3.9 0.7 2.2-1.7 1.4-6.1-1.5-6.4-2.7-0.1-3.9 3.7-2.4 5.7z" class="b"/>
    <path d="m2049.5 799.5c2.2-1.5 1.4-5.9-1.4-6-4.7 0.1-2.6 9 1.4 6z" class="b"/>
    <path d="m2050.7 791.1c2.4-1.1 1.8-5.5-0.9-5.6-4.2-0.6-2.9 7.8 0.9 5.6z" class="b"/>
    <path d="m2051.3 782.5c1.9-1 1.7-4.5-0.4-5.1-4.3-1-3 7.3 0.4 5.1z" class="b"/>
    <path d="m2049.4 774c0.5 1 2 1.3 2.7 0.4 1.3-1.1 0.6-3.9-1.2-3.8-1.6 0.1-2.3 2.2-1.5 3.4z" class="b"/>
    <path d="m2049.9 766.8c0.3 1 1.8 1.2 2.5 0.5 1.1-0.9 0.6-3.3-0.9-3.3-1.4-0.2-2.2 1.7-1.5 2.8z" class="b"/>
    <path d="m2052.4 759.8c-0.5-1.7-3-0.8-2.4 0.9 0.2 2 3.2 0.9 2.4-0.9z" class="b"/>
    <path d="m2026.4 874.9-21.8-12.3c0 0 11.4 12.2 21.8 12.3z" class="b"/>
    <path d="m2341.2 533.5c38.3-26.6 6.4-62.6-15.2-52.5-9.2 4.3-7.2 17.6 1.8 19.5 3.8 1 7.9-2.4 8-6.3 0.1-1.2-0.9-2-1.5-2.8 25.2-2.4 26 80.9-119.2 47.2-21.7-5.5-28.2-22.3-14.2-22.7-7 8 6.3 13 10.2 5.3 3.7-7.8-6.1-15.8-15-12.9-11 3.3-12.4 13-6.2 19.3 2.4 2.7 5.5 4.5 8.5 6.4-20.4-7.1-44-20.4-39.8-42 2-11.7 15.3-7.6 16.1 1.5 10.1-3.3 12-9.6 9.2-15.6-9.4-19.8-43.6-10.2-37.7 16.9 3.3 14.8 13.8 24.5 27.1 30.8-2.7-0.6-34.5-12.6-59.8-32.5-4-3.2-2.8-16.6 12.7-6.3 6.2 4 12.2 13.6 20 20.1 3.5 3.6 7.5 6.8 11.4 10 0.5-0.1 1.1-0.9 0-1.1-33.5-35.3 8.1-51.5-5.3-72.1 2.3 9.6-0.5 10.6-8.8 16.2-10.7 6.7-14 16.2-10.3 27.8-9.6-11.9-23.7-14.2-29.4-8.5-17.6-15.3-6.1-25.6-0.4-20.7-2.6 0.4-5.1 3-3.9 5.7 2.2 3.3 7.6 2.8 9.8-0.3 3-3.3 1.3-9-2.5-10.9-14.9-7.6-25.3 11.6-4.4 28.9 0 0.3 0 1 0 1.4-13.2-10.4-34-41.6-20.3-62.5 10.3-15.6 36-11 30.8 6.7-8.1-13.8-28 1.8-14.9 11.9 9.3 7.3 33.3 3.7 31.2-14.3-3.1-25.4-59.6-29.6-68.5 6.9-24.2-15.8-59.3 10-15.5 46.6 21.8 18.2 65.7 35.4 97.8 47-3.7-2-118.7-47.7-92.9-88.5-7.5 3-12.1 11.4-1.5 28.3-18.5-24.7-1.2-39 11.1-28.1-6 78.5 204.7 149.1 281.7 96.3z" class="b"/>
    <path d="m2343.2 471.7c-3.2-4.8-0.8-8.1 3-7.4-5.9 7.3 7.7 6.4 4.8-0.4-3-7.3-17.9-2.6-10.3 8.8-6.2-1.6-12.9-1.4-18.9 1-24.4 9.9-14.3 46.4 6.3 43 6.6-1.2 11-5.5 9.2-12.2-19.9 13.4-35-20.7-9.3-26.3 14.1-3.2 30.6 5.1 32.4 24.5 1.9-20.3-14.6-27.2-17.3-30.9z" class="b"/>
    <path d="m2081.7 501.8c-47.7-18.3-59.4-50.3-74-36.6 11.5-3.2 11.4 4.1 18.5 15-12.6-8.1-29-10.4-43.7-7.4l0 0c-3.1 15.3-0.6 32.1 7.3 44.5-12.5-8.2-16.8-7.1-15.1-18.4-12.3 13.3 15.5 24.4 36.3 74.4-10.2-44.1-26-58.1-23.3-95.1v0c16.8-1.3 33.7 1.8 46.1 8.1 11 4.3 47.5 15.5 47.9 15.5z" class="b"/>
    <path d="m2377.9 517.4-12.1-22.2c8.6 53.6-74.6 62.3-127.4 59.2-96.2-7.2-133.4-60.4-236.7-62.1l0 0c0.7 30.4 4.8 57.8 15.5 89.1 14.9 43.4 67.2 137.9 38.2 236.1-16 53.7-42.2 46.2-50.9 45.1l21.8 12.3c47.4-16.3 59.6-119.7 36.3-203.6-17.3-62.3-45.4-95-49.5-167.3l0 0c96.9 5.7 128.8 59.7 245.3 62.3 41.1-0.6 107.6-9.6 119.4-49z" class="b"/>
    <path d="m2337.1 523.5c0.9-6.7-11.7-5.3-8.8 1 1.6 3.7 8.2 3.2 8.8-1z" class="b"/>
    <path d="m2324 526.5c-1.7 0.6-2.8 2.7-2 4.4 1.4 3.2 6.9 2.8 7.6-0.8 0.4-3-3.2-4.9-5.6-3.6z" class="b"/>
    <path d="m2321.3 534.5c1.1-5.3-9-4.4-7 0.4 1 3.1 6.4 2.9 7-0.4z" class="b"/>
    <path d="m2313.2 537.3c0.1-2.7-3.5-3.9-5.5-2.5-1.4 0.8-1.8 2.9-0.7 4.2 1.7 2.1 5.9 1.3 6.2-1.6z" class="b"/>
    <path d="m2304.2 539.6c0.1-2.4-2.9-3.5-4.7-2.4-1.7 0.7-2.1 3.3-0.5 4.4 1.7 1.6 5.2 0.6 5.2-2z" class="b"/>
    <path d="m2295.8 541.2c0.1-2-2.2-3.1-3.9-2.5-1.6 0.3-2.6 2.5-1.5 3.8 1.4 2 5.2 1.3 5.4-1.3z" class="b"/>
    <path d="m2287.3 542.3c0.4-2.2-2.5-3.5-4.1-2.4-1.1 0.5-1.6 2-0.9 3 1.1 1.9 4.5 1.5 5-0.6z" class="b"/>
    <path d="m2276.5 544.1c1.2 0.6 3.1-0.2 3.1-1.7-0.1-1.6-2.3-2.4-3.5-1.4-1.2 0.7-1 2.8 0.4 3.1z" class="b"/>
    <path d="m2265.8 541.5c-1.1-0.4-1.9 0.4-2.3 1.3 3.4 2.9 3.8-1 2.3-1.3z" class="b"/>
    <path d="m2272.5 542.8c0.1-1.5-1.9-2.1-3-1.3-1.1 0.6-0.9 2.3 0.2 2.8 1.1 0.6 2.8 0 2.8-1.4z" class="b"/>
    <path d="m2365.8 495.2 12.1 22.2c-2.6-13-12.1-22.2-12.1-22.2z" class="b"/>
    <path d="m3115.8 525.5c38.8-14.1 109.1-38.7 118.1-75.5 4.9-19.4-19.8-28.9-35.6-18.1-2.6-7.4-5.8-15.8-16.3-21.5-14.9-8.2-40.3-6.9-50 7.3-6.5 11.8 0.7 25.9 17.6 24.9 17.1-0.8 17.3-13.3 13.5-17.1-3.9-3.9-12.7-6-17 1.7-7-19.5 30.2-25.1 35.3 4.9 2 26.3-22 49.1-24.7 51 0-0.4 0-1.1 0-1.5 12.8-10 16-26.9 5.2-29.8-10.5-2.6-16.5 6.1-12.5 11.6 4.5 7.3 17.1-0.4 6.4-5 5.5-4.8 17 4.9-0.5 20.8-7.5-7.1-22.6-0.7-29.6 8.8 3.8-12.2 0-21.4-9.1-27.3-8-5.6-13-6.7-9.8-17.3-13 20 23.3 33.6-0.5 66.9-0.3 0.1-0.9 0.2-1.2 0.2 3.2-3.1 11-16.8 7.3-28.5-5-15.7-27-20.2-36.3-6-4.6 6.7-2.4 14.6 8.1 17.5 0.4-2.7 1.7-5.3 3.9-6.9 14.7-10.6 28 29.8-27.8 47.5 26.5-16 3.4-31.6-8.3-24.4-8.7 5.1-5.4 16.7 3.4 15.4 2.5-0.4 4.6-2.7 4.4-5.3 0.1-1.5-1-2.6-1.8-3.8 8.8-0.6 12.4 12-7.6 20.5-5.5 2.4-11.6 3.3-17.4 4.6-138.8 26.9-130.9-53.8-108.6-49.4-0.5 0.6-0.9 1.1-1.3 1.7-0.8 2.8 1.3 5.6 3.6 6.9 7.4 4 17.1-9.1 9.1-16.9-12.9-12-39.9 4.4-36 27.2 8.6 45 122.3 61.5 232 6.1 32.4-16.5 69.9-42.4 67.5-79.1 9.2-9.7 29.9-0.5 11.8 26.9 5.8-11 9.1-22.5-2.2-27.3 24.1 41.3-79.7 81.8-92.9 88.6zm31.3-35.3c-0.8 4.8-28.9 22.9-62.2 35.8 6.1-3.1 16.9-9.4 20-15.6 0.2 0.3 0.5 0.5 0.7 0.8-1.9 1.9-3.7 3.9-5.2 6.1 20.6-14.3 29.8-35.3 42.5-34.5 3.3 0.4 5.3 4.3 4.1 7.3z" class="b"/>
    <path d="m2910.8 475.6c-12.2 8-13.8 22.3-12.6 26.4 0.9-29.8 43.3-30.8 45.7-11.7 1.7 11.2-10.9 23.4-22.6 14-4.5 10.7 15.4 19.4 25.8 4.2 12.1-18.4-3.9-42.7-29.4-35.9 4.5-5.3 1.9-14-6.6-11.9-2.7 0.6-4.8 3.9-3.4 6.6 1.6 3.9 9.8 2 4.6-3 4.6-1.1 7.9 5.4-1.5 11.4z" class="b"/>
    <path d="m3080.9 554.3c61.2-17.6 93.4-46.1 164.5-50.3l0 0c-5.6 98.6-58.7 131-61.3 249.5 0.5 35.4 5.2 79.2 27.2 106.5 5.6 6.6 12.6 12.3 20.9 14.9l21.8-12.3c-52.7 8.7-61.2-75.9-58.2-129.6 7.1-97.8 59.4-135.7 61.1-240.7l0 0c-119 2.8-194.4 93-319.7 54.7-52.8-16.2-45.4-42.9-44.3-51.8l-12.1 22.2c16 48.2 117.7 60.6 200.2 36.9z" class="b"/>
    <path d="m2930.6 523.5c0.5-3.6-3.9-5.4-6.7-4.1-2 0.8-3.2 3.4-2 5.4 1.9 3.4 8.1 2.8 8.7-1.3z" class="b"/>
    <path d="m2936.9 530.2c1.1-5.8-9.8-4.9-7.7 0.5 1.3 3.3 7 3.1 7.7-0.5z" class="b"/>
    <path d="m2937.5 535c1.2 2.9 6.2 2.7 6.9-0.4 1.3-5.4-9.1-4.7-6.9 0.4z" class="b"/>
    <path d="m2946.2 538.9c1.6 2.2 6 1.4 6.2-1.5 0.1-2.8-3.6-3.9-5.6-2.5-1.3 0.8-1.6 2.8-0.7 4z" class="b"/>
    <path d="m2960.7 539.5c-0.1-4.8-8.9-2.6-5.9 1.5 1.5 2.3 5.8 1.5 5.9-1.5z" class="b"/>
    <path d="m2968.6 541.2c0.5-4.3-7.6-2.9-5.5 0.9 1.1 2.4 5.4 1.9 5.5-0.9z" class="b"/>
    <path d="m2976.6 542.4c1-4.4-7.2-3.1-5 0.4 1 2 4.4 1.8 5-0.4z" class="b"/>
    <path d="m2983.3 542.3c-0.1-1.6-2.2-2.4-3.4-1.5-1 0.5-1.2 2-0.4 2.7 1.1 1.3 3.8 0.6 3.8-1.2z" class="b"/>
    <path d="m2989.7 542.8c0.2-1.5-1.7-2.2-2.8-1.5-0.9 0.3-1.1 1.8-0.5 2.5 0.9 1.1 3.3 0.6 3.2-1z" class="b"/>
    <path d="m2993.9 543.9c1.7-0.5 0.8-3-0.8-2.5-2 0.2-0.9 3.3 0.8 2.5z" class="b"/>
    <path d="m2892.7 495.2c0 0-12 11.6-12.1 22.2z" class="b"/>
    <path d="m3216.4 837.6c26.1 39 61.6 6.5 51.6-15.4-4.2-9.4-17.3-7.4-19.2 1.8-1 3.9 2.4 8 6.2 8.1 1.2 0.1 1.9-0.9 2.8-1.6 2.3 25.7-79.6 26.5-46.4-121.3 5.4-22 21.9-28.7 22.4-14.5-7.9-7.1-12.7 6.4-5.2 10.4 7.7 3.8 15.6-6.2 12.7-15.3-3.3-11.2-12.8-12.7-19-6.3-2.7 2.4-4.4 5.6-6.3 8.6 6.9-20.8 20.1-44.7 41.3-40.5 11.5 2 7.5 15.6-1.5 16.3 3.3 10.2 9.4 12.2 15.3 9.3 19.4-9.5 10-44.4-16.6-38.4-14.5 3.4-24.1 14-30.3 27.6 0.6-2.7 12.4-35.1 32-60.8 3.1-4 16.4-2.8 6.2 12.9-4 6.3-13.4 12.4-19.7 20.3-3.6 3.6-6.7 7.6-9.9 11.6 0.1 0.5 0.9 1.1 1.1 0 34.7-34.1 50.6 8.3 70.9-5.4-9.5 2.3-10.5-0.5-15.9-9-6.6-10.9-15.9-14.2-27.3-10.5 11.7-9.8 14-24.1 8.4-29.9 15-17.9 25.2-6.2 20.4-0.4-0.4-2.7-2.9-5.2-5.6-3.9-3.3 2.2-2.7 7.7 0.3 9.9 3.3 3 8.9 1.4 10.7-2.5 7.5-15.2-11.4-25.7-28.4-4.5-0.3 0-1 0-1.4 0 10.2-13.5 40.9-34.5 61.5-20.6 15.4 10.5 10.8 36.7-6.6 31.3 13.5-8.2-1.8-28.5-11.7-15.1-7.1 9.5-3.7 33.9 14 31.8 25-3.2 29.1-60.6-6.8-69.6 15.5-24.7-9.8-60.3-45.8-15.8-17.9 22.2-34.8 66.9-46.2 99.5 2.3-4.5 47-120.7 87-94.4-2.9-7.6-11.2-12.3-27.9-1.5 24.3-18.9 38.3-1.2 27.6 11.3-77.2-6.1-146.6 208.2-94.7 286.5z" class="b"/>
    <path d="m3277.2 839.7c4.7-3.3 8-0.8 7.3 3-7.2-6.1-6.2 7.8 0.4 4.9 7.1-3 2.5-18.2-8.6-10.4 1.6-6.3 1.4-13.1-0.9-19.2-9.7-24.9-45.6-14.5-42.3 6.4 1.2 6.7 5.4 11.2 12 9.4-13.1-20.3 20.3-35.6 25.8-9.4 3.2 14.3-5 31.2-24.1 32.9 20 1.9 26.8-14.9 30.4-17.6z" class="b"/>
    <path d="m3283.5 498.5c3.1 11.7-4.1 11.6-14.8 18.8 8-12.9 10.3-29.5 7.2-44.5l0 0c-15.1-3.2-31.5-0.6-43.8 7.4 8-12.7 7-17.1 18.1-15.3-13.1-12.5-24 15.8-73.1 36.9 43.4-10.4 57.1-26.4 93.5-23.7l0 0c1.2 17.1-1.8 34.2-8 46.9-4.3 11.2-15.2 48.3-15.3 48.7 18-48.5 49.4-60.4 36-75.3z" class="b"/>
    <path d="m3226.2 833.5c6.6 0.9 5.2-11.9-1-9-3.7 1.7-3.2 8.3 1 9z" class="b"/>
    <path d="m3219.7 825.8c2.9 0.4 4.8-3.3 3.5-5.7-0.6-1.7-2.6-2.8-4.3-2-3.1 1.4-2.7 7.1 0.8 7.7z" class="b"/>
    <path d="m3215.4 817.4c5.2 1.1 4.4-9.2-0.4-7.2-3.1 1-2.8 6.5 0.4 7.2z" class="b"/>
    <path d="m3212.7 809.1c2.7 0.1 3.8-3.5 2.5-5.5-0.8-1.5-2.9-1.8-4.1-0.8-2.1 1.7-1.3 6 1.6 6.3z" class="b"/>
    <path d="m3210.4 800c2.3 0.1 3.4-2.9 2.4-4.8-0.7-1.7-3.3-2.1-4.3-0.5-1.6 1.7-0.6 5.3 1.9 5.3z" class="b"/>
    <path d="m3208.8 791.4c2 0.1 3.1-2.3 2.5-4-0.3-1.6-2.4-2.6-3.7-1.5-1.9 1.4-1.3 5.3 1.3 5.5z" class="b"/>
    <path d="m3207.7 782.8c2.2 0.4 3.4-2.5 2.3-4.2-0.5-1.1-2-1.6-2.9-0.9-1.8 1.1-1.5 4.6 0.6 5.1z" class="b"/>
    <path d="m3207.7 775c1.6-0.1 2.4-2.3 1.4-3.6-0.7-1.2-2.7-1-3.1 0.4-0.6 1.3 0.2 3.1 1.7 3.2z" class="b"/>
    <path d="m3208.5 760.9c0.4-1.1-0.4-1.9-1.3-2.3-2.8 3.5 1 3.9 1.3 2.3z" class="b"/>
    <path d="m3207.3 767.8c1.5 0.1 2.1-1.9 1.3-3-0.5-1.1-2.2-0.9-2.7 0.2-0.6 1.1 0 2.9 1.4 2.8z" class="b"/>
    <path d="m3254 862.6-21.8 12.3c12.8-2.6 21.8-12.3 21.8-12.3z" class="b"/>
    <path d="m3311.4 1719.9c-40.6 24.5-80.4-81-87.1-94.5 13.9 39.5 38 110.9 74.2 120.1 19.1 5 28.5-20.2 17.8-36.3 7.3-2.6 15.5-5.9 21.2-16.6 8.1-15.2 6.7-41-7.2-50.8-11.6-6.6-25.5 0.8-24.5 17.9 0.8 17.4 13.1 17.6 16.8 13.8 3.8-4 5.9-12.9-1.7-17.3 19.2-7.1 24.7 30.7-4.8 35.9-25.8 2-48.3-22.3-50.1-25.2 0.4 0 1.1 0 1.5 0 9.8 13 26.4 16.2 29.3 5.3 2.6-10.7-6-16.8-11.4-12.7-7.2 4.6 0.3 17.4 4.9 6.5 4.7 5.6-4.8 17.3-20.4-0.5 7-7.7 0.7-23-8.6-30.1 12 3.9 21.1 0 26.9-9.3 5.5-8.1 6.6-13.2 17-9.9-19.7-13.2-33.1 23.7-65.7-0.5-0.1-0.3-0.2-0.9-0.2-1.2 3 3.3 16.5 11.2 28 7.4 15.5-5 19.8-27.4 5.9-36.9-6.6-4.6-14.4-2.4-17.2 8.2 2.6 0.4 5.2 1.7 6.7 4 10.4 14.9-29.3 28.5-46.7-28.3 15.7 27 31.1 3.5 24-8.5-5-8.8-16.4-5.5-15.1 3.5 0.4 2.5 2.7 4.7 5.3 4.5 1.5 0.1 2.6-1 3.7-1.8 0.6 9-11.8 12.6-20.1-7.7-2.4-5.6-3.2-11.8-4.5-17.7-26.4-141.2 52.9-133.1 48.6-110.5-0.5-0.5-1.1-1-1.7-1.4-2.8-0.8-5.5 1.3-6.8 3.7-3.9 7.6 9 17.3 16.6 9.2 11.8-13.1-4.3-40.6-26.7-36.6-44.2 8.8-60.5 124.4-6 236 16.3 33 41.7 71 77.8 68.6 9.6 9.3 0.4 30.4-26.5 12 10.9 6 22.1 9.3 26.9-2.3zm-52.5-62.7c-4.7-0.8-22.5-29.4-35.2-63.3 3 6.2 9.2 17.2 15.3 20.4-0.3 0.2-0.5 0.5-0.8 0.7-1.8-1.9-3.8-3.8-6-5.3 14 21 34.8 30.4 34 43.3-0.4 3.4-4.2 5.4-7.2 4.2z" class="b"/>
    <path d="m3247.3 1404.3c29.3 1 30.3 44.1 11.5 46.4-11 1.7-23-11.1-13.7-23-10.5-4.6-19.1 15.7-4.1 26.2 18.1 12.4 42-4 35.3-29.9 5.2 4.6 13.8 1.9 11.7-6.7-0.6-2.8-3.8-4.9-6.4-3.4-3.9 1.7-1.9 9.9 3 4.7 1.1 4.7-5.3 8-11.2-1.5-7.9-12.4-21.9-14.1-26-12.8z" class="b"/>
    <path d="m3226.2 1437.1c3.5 0.5 5.3-4 4-6.8-0.8-2-3.3-3.2-5.3-2.1-3.3 1.9-2.7 8.2 1.2 8.9z" class="b"/>
    <path d="m3219.2 1435.6c-3.3 1.3-3 7.1 0.5 7.9 5.7 1.1 4.9-10-0.5-7.9z" class="b"/>
    <path d="m3214.9 1444.1c-2.9 1.2-2.6 6.3 0.4 7 5.3 1.3 4.6-9.2-0.4-7z" class="b"/>
    <path d="m3215.1 1453.5c-0.8-1.3-2.8-1.7-3.9-0.7-2.2 1.7-1.4 6.1 1.5 6.4 2.7 0.1 3.9-3.7 2.4-5.7z" class="b"/>
    <path d="m3209 1461.7c-2.2 1.5-1.4 5.9 1.4 6 4.7-0.1 2.6-9-1.4-6z" class="b"/>
    <path d="m3207.8 1470.1c-2.4 1.1-1.8 5.5 0.9 5.6 4.2 0.6 2.9-7.8-0.9-5.6z" class="b"/>
    <path d="m3207.2 1478.7c-1.9 1-1.7 4.5 0.4 5.1 4.3 1 3-7.3-0.4-5.1z" class="b"/>
    <path d="m3209.2 1487.2c-0.5-1-2-1.3-2.7-0.4-1.3 1.1-0.6 3.9 1.2 3.8 1.6-0.1 2.3-2.2 1.5-3.4z" class="b"/>
    <path d="m3208.7 1494.4c-0.3-1-1.8-1.2-2.5-0.5-1.1 0.9-0.6 3.3 0.9 3.3 1.4 0.2 2.2-1.7 1.5-2.8z" class="b"/>
    <path d="m3206.1 1501.4c0.5 1.7 3 0.8 2.4-0.9-0.2-2-3.2-0.9-2.4 0.9z" class="b"/>
    <path d="m3232.2 1386.2 21.8 12.3c0 0-11.4-12.2-21.8-12.3z" class="b"/>
    <path d="m3160.8 1822c-9.3-7.3-33.3-3.7-31.2 14.3 3.1 25.4 59.6 29.6 68.5-6.9 24.2 15.8 59.3-10 15.5-46.6-21.8-18.2-65.7-35.4-97.8-47 4.4 2.4 118.7 47.8 92.9 88.5 7.5-3 12.1-11.4 1.5-28.3 18.5 24.7 1.2 39-11.1 28.1 6-78.5-204.7-149.1-281.7-96.3-38.3 26.6-6.4 62.6 15.2 52.5 9.2-4.3 7.2-17.6-1.8-19.5-3.8-1-7.9 2.4-8 6.3-0.1 1.2 0.9 2 1.5 2.8-25.2 2.4-26-80.9 119.2-47.2 21.7 5.5 28.2 22.3 14.2 22.7 7-8-6.3-13-10.2-5.3-3.7 7.8 6.1 15.8 15 12.9 11-3.3 12.4-13 6.2-19.3-2.4-2.7-5.5-4.5-8.5-6.4 20.4 7.1 44 20.4 39.8 42-2 11.7-15.3 7.6-16.1-1.5-10.1 3.3-12 9.6-9.2 15.6 9.4 19.8 43.6 10.2 37.7-16.9-3.3-14.8-13.8-24.5-27.1-30.8 2.7 0.6 34.5 12.6 59.8 32.5 4 3.2 2.8 16.6-12.7 6.3-6.2-4-12.2-13.6-20-20.1-3.5-3.6-7.5-6.8-11.4-10-0.5 0.1-1.1 0.9 0 1.1 33.5 35.3-8.1 51.5 5.3 72.1-2.3-9.6 0.5-10.6 8.8-16.2 10.7-6.7 14-16.2 10.3-27.8 9.6 11.9 23.7 14.2 29.4 8.5 17.6 15.3 6.1 25.6 0.4 20.7 2.6-0.4 5.1-3 3.9-5.7-2.2-3.3-7.6-2.8-9.8 0.3-3 3.3-1.3 9 2.5 10.9 14.9 7.6 25.3-11.6 4.4-28.9 0-0.3 0-1 0-1.4 13.2 10.4 34 41.6 20.3 62.5-10.3 15.6-36 11-30.8-6.7 8 13.7 28-1.8 14.9-11.9z" class="b"/>
    <path d="m2936.7 1787.6c24.4-9.9 14.3-46.4-6.3-43-6.6 1.2-11 5.5-9.2 12.2 19.9-13.4 35 20.7 9.3 26.3-14.1 3.2-30.6-5.1-32.4-24.5-1.9 20.3 14.6 27.2 17.3 30.9 3.2 4.8 0.8 8.1-3 7.4 5.9-7.3-7.7-6.4-4.8 0.4 3 7.3 17.9 2.6 10.3-8.8 6.2 1.6 12.9 1.4 18.9-1z" class="b"/>
    <path d="m3176.8 1759.4c47.7 18.3 59.4 50.3 74 36.6-11.5 3.2-11.4-4.1-18.5-15 12.6 8.1 29 10.4 43.7 7.4l0 0c3.1-15.3 0.6-32.1-7.3-44.5 12.5 8.2 16.8 7.1 15.1 18.4 12.3-13.3-15.5-24.4-36.3-74.4 10.3 44.5 26 58 23.3 95.1h0c-37.4 2.8-52.8-14.7-94-23.7z" class="b"/>
    <path d="m2892.7 1766c-8.6-53.6 74.6-62.3 127.4-59.2 96.2 7.2 133.4 60.4 236.7 62.1l0 0c-2.8-121-91.4-197.7-53.7-325.2 16-53.7 42.2-46.2 50.9-45.1l-21.8-12.3c-47.4 16.3-59.6 119.7-36.3 203.6 17.3 62.3 45.4 95 49.5 167.3l0 0c-96.9-5.7-128.8-59.7-245.3-62.3-41.1 0.6-107.6 9.6-119.4 49l12.1 22.2z" class="b"/>
    <path d="m2921.5 1737.7c-0.9 6.7 11.7 5.3 8.8-1-1.6-3.7-8.2-3.2-8.8 1z" class="b"/>
    <path d="m2934.6 1734.7c1.7-0.6 2.8-2.7 2-4.4-1.4-3.2-6.9-2.8-7.6 0.8-0.4 3 3.2 4.9 5.6 3.6z" class="b"/>
    <path d="m2944.3 1726.3c-1-3.1-6.4-2.9-7 0.4-1.1 5.3 9 4.4 7-0.4z" class="b"/>
    <path d="m2951.6 1722.3c-1.7-2.1-5.9-1.3-6.2 1.6-0.1 2.7 3.5 3.9 5.5 2.5 1.4-0.8 1.8-2.9 0.7-4.2z" class="b"/>
    <path d="m2954.4 1721.6c-0.1 2.4 2.9 3.5 4.7 2.4 1.7-0.7 2.1-3.3 0.5-4.4-1.7-1.6-5.2-0.6-5.2 2z" class="b"/>
    <path d="m2962.7 1720c-0.1 2 2.2 3.1 3.9 2.5 1.6-0.3 2.6-2.5 1.5-3.8-1.4-2-5.2-1.3-5.4 1.3z" class="b"/>
    <path d="m2971.2 1718.9c-0.4 2.2 2.5 3.5 4.1 2.4 1.1-0.5 1.6-2 0.9-3-1.1-1.9-4.5-1.5-5 0.6z" class="b"/>
    <path d="m2982.1 1717.1c-1.2-0.6-3.1 0.2-3.1 1.7 0.1 1.6 2.3 2.4 3.5 1.4 1.2-0.7 1-2.8-0.4-3.1z" class="b"/>
    <path d="m2992.7 1719.6c1.1 0.4 1.9-0.4 2.3-1.3-3.4-2.9-3.8 1-2.3 1.3z" class="b"/>
    <path d="m2986 1718.5c-0.1 1.5 1.9 2.1 3 1.3 1.1-0.6 0.9-2.3-0.2-2.8-1.1-0.6-2.8 0.1-2.8 1.4z" class="b"/>
    <path d="m2892.7 1766-12.1-22.2c2.6 13 12.1 22.2 12.1 22.2z" class="b"/>
    <path d="m2142.7 1735.7c-38.8 14.1-109.1 38.7-118.1 75.5-4.9 19.4 19.8 28.9 35.6 18.1 2.6 7.4 5.8 15.8 16.3 21.5 14.9 8.2 40.3 6.9 50-7.3 6.5-11.8-0.7-25.9-17.6-24.9-17.1 0.8-17.3 13.3-13.5 17.1 3.9 3.9 12.7 6 17-1.7 7 19.5-30.2 25.1-35.3-4.9-2-26.3 22-49.1 24.7-51 0 0.4 0 1.1 0 1.5-12.8 10-16 26.9-5.2 29.8 10.5 2.6 16.5-6.1 12.5-11.6-4.5-7.3-17.1 0.4-6.4 5-5.5 4.8-17-4.9 0.5-20.8 7.6 7.1 22.6 0.7 29.6-8.8-3.8 12.2 0 21.4 9.1 27.3 8 5.6 13 6.7 9.8 17.3 13-20-23.3-33.6 0.5-66.9 0.3-0.1 0.9-0.2 1.2-0.2-3.2 3.1-11 16.8-7.3 28.5 5 15.7 27 20.2 36.3 6 4.6-6.7 2.4-14.6-8.1-17.5-0.4 2.7-1.7 5.3-3.9 6.9-14.7 10.6-28-29.8 27.8-47.5-26.5 16-3.4 31.6 8.3 24.4 8.7-5.1 5.4-16.7-3.4-15.4-2.5 0.4-4.6 2.7-4.4 5.3-0.1 1.5 1 2.6 1.8 3.8-8.8 0.6-12.4-12 7.6-20.5 5.5-2.4 11.6-3.3 17.4-4.6 138.8-26.9 130.9 53.8 108.6 49.4 0.5-0.6 0.9-1.1 1.3-1.7 0.8-2.8-1.3-5.6-3.6-6.9-7.4-4-17.1 9.1-9.1 16.9 12.9 12 39.9-4.4 36-27.2-8.6-45-122.3-61.5-232-6.1-32.4 16.5-69.9 42.4-67.5 79.1-9.2 9.7-29.9 0.5-11.8-26.9-5.9 11.1-9.1 22.5 2.2 27.3-24.1-41.3 79.7-81.8 92.9-88.6zm-31.3 35.3c0.8-4.8 28.9-22.9 62.2-35.8-6.1 3.1-16.9 9.4-20 15.6-0.2-0.3-0.5-0.5-0.7-0.8 1.9-1.9 3.7-3.9 5.2-6.1-20.6 14.3-29.8 35.3-42.5 34.5-3.3-0.4-5.3-4.3-4.1-7.3z" class="b"/>
    <path d="m2347.6 1785.6c12.2-8 13.8-22.3 12.6-26.4-0.9 29.8-43.3 30.8-45.7 11.7-1.7-11.2 10.9-23.4 22.6-14 4.5-10.7-15.4-19.4-25.8-4.2-12.1 18.4 3.9 42.7 29.4 35.9-4.5 5.3-1.9 14 6.6 11.9 2.7-0.6 4.8-3.9 3.4-6.6-1.6-3.9-9.8-2-4.6 3-4.6 1.1-7.9-5.4 1.5-11.4z" class="b"/>
    <path d="m2177.7 1706.9c-47.3 13.6-81.1 35.6-125.3 45-12.2 2.8-25.6 4.5-39.2 5.3l0 0c5.6-98.6 58.7-131 61.3-249.5-0.6-41.8-9.5-109.4-48.2-121.4l-21.8 12.3c52.7-8.7 61.2 75.9 58.2 129.6-7.1 97.8-59.4 135.7-61.1 240.7l0 0c119-2.8 194.4-93 319.7-54.7 52.8 16.2 45.4 42.9 44.3 51.8l12.1-22.2c-16-48.2-117.7-60.6-200.2-36.9z" class="b"/>
    <path d="m2327.9 1737.7c-0.5 3.6 3.9 5.4 6.7 4.1 2-0.8 3.2-3.4 2-5.4-1.9-3.4-8.1-2.8-8.7 1.3z" class="b"/>
    <path d="m2321.6 1731.1c-1.1 5.8 9.8 4.9 7.7-0.5-1.3-3.3-7-3.1-7.7 0.5z" class="b"/>
    <path d="m2321.1 1726.2c-1.2-2.9-6.2-2.7-6.9 0.4-1.3 5.4 9.1 4.7 6.9-0.4z" class="b"/>
    <path d="m2312.4 1722.4c-1.6-2.2-6-1.4-6.2 1.5-0.1 2.8 3.6 3.9 5.6 2.5 1.3-0.8 1.6-2.8 0.7-4z" class="b"/>
    <path d="m2297.8 1721.6c0.1 4.8 8.9 2.6 5.9-1.5-1.5-2.3-5.8-1.5-5.9 1.5z" class="b"/>
    <path d="m2289.9 1720c-0.5 4.3 7.6 2.9 5.5-0.9-1.1-2.4-5.4-1.9-5.5 0.9z" class="b"/>
    <path d="m2282 1718.8c-1 4.4 7.2 3.1 5-0.4-1-2-4.4-1.8-5 0.4z" class="b"/>
    <path d="m2275.2 1718.8c0.1 1.6 2.2 2.4 3.4 1.5 1-0.5 1.2-2 0.4-2.7-1.1-1.3-3.8-0.6-3.8 1.2z" class="b"/>
    <path d="m2268.8 1718.4c-0.2 1.5 1.7 2.2 2.8 1.5 0.9-0.3 1.1-1.8 0.5-2.5-0.9-1.1-3.3-0.6-3.2 1z" class="b"/>
    <path d="m2264.7 1717.3c-1.7 0.5-0.8 3 0.8 2.5 2-0.2 0.9-3.3-0.8-2.5z" class="b"/>
    <path d="m2365.8 1766c0 0 12-11.6 12.1-22.2z" class="b"/>
    <path d="m2042.1 1423.6c-26.1-39-61.6-6.5-51.6 15.4 4.2 9.4 17.3 7.4 19.2-1.8 1-3.9-2.4-8-6.2-8.1-1.2-0.1-1.9 0.9-2.8 1.6-2.3-25.7 79.6-26.5 46.4 121.3-5.4 22-21.9 28.7-22.4 14.5 7.9 7.1 12.7-6.4 5.2-10.4-7.7-3.8-15.6 6.2-12.7 15.3 3.3 11.2 12.8 12.7 19 6.3 2.7-2.4 4.4-5.6 6.3-8.6-6.9 20.8-20.1 44.7-41.3 40.5-11.5-2-7.5-15.6 1.5-16.3-3.3-10.2-9.4-12.2-15.3-9.3-19.4 9.5-10 44.4 16.6 38.4 14.5-3.4 24.1-14 30.3-27.6-0.6 2.7-12.4 35.1-32 60.8-3.1 4-16.4 2.8-6.2-12.9 4-6.3 13.4-12.4 19.7-20.3 3.6-3.6 6.7-7.6 9.9-11.6-0.1-0.5-0.9-1.1-1.1 0-34.7 34.1-50.6-8.3-70.9 5.4 9.5-2.3 10.5 0.5 15.9 9 6.6 10.9 15.9 14.2 27.3 10.5-11.7 9.8-14 24.1-8.4 29.9-15 17.9-25.2 6.2-20.4 0.4 0.4 2.7 2.9 5.2 5.6 3.9 3.3-2.2 2.7-7.7-0.3-9.9-3.3-3-8.9-1.4-10.7 2.5-7.5 15.2 11.4 25.7 28.4 4.5 0.3 0 1 0 1.4 0-10.2 13.5-40.9 34.5-61.5 20.6-15.4-10.5-10.8-36.7 6.6-31.3-13.5 8.2 1.8 28.5 11.7 15.1 7.1-9.5 3.7-33.9-14-31.8-25 3.2-29.1 60.6 6.8 69.6-15.5 24.7 9.8 60.3 45.8 15.8 17.9-22.2 34.8-66.9 46.2-99.5-2.3 4.5-47 120.7-87 94.4 2.9 7.6 11.2 12.3 27.9 1.5-24.3 18.9-38.3 1.2-27.6-11.3 77.2 6.1 146.6-208.2 94.7-286.5z" class="b"/>
    <path d="m1981.4 1421.5c-4.7 3.3-8 0.8-7.3-3 7.2 6.1 6.2-7.8-0.4-4.9-7.1 3-2.5 18.2 8.6 10.4-1.6 6.3-1.4 13.1 0.9 19.2 9.7 24.9 45.6 14.5 42.3-6.4-1.2-6.7-5.4-11.2-12-9.4 13.1 20.3-20.3 35.6-25.8 9.4-3.2-14.3 5-31.2 24.1-32.9-20-1.9-26.8 14.9-30.4 17.6z" class="b"/>
    <path d="m1975 1762.7c-3.1-11.7 4.1-11.6 14.8-18.8-8 12.9-10.3 29.5-7.2 44.5l0 0c15.1 3.2 31.5 0.6 43.8-7.4-8 12.7-7 17.1-18.1 15.3 13.1 12.5 24-15.8 73.1-36.9-43.5 10.4-57.1 26.4-93.5 23.7v0c-1.2-17.1 1.8-34.2 8-46.9 4.3-11.2 15.2-48.3 15.3-48.7-18 48.5-49.4 60.4-36 75.3z" class="b"/>
    <path d="m2032.3 1427.8c-6.6-0.9-5.2 11.9 1 9 3.7-1.7 3.2-8.3-1-9z" class="b"/>
    <path d="m2038.8 1435.4c-2.9-0.4-4.8 3.3-3.5 5.7 0.6 1.7 2.6 2.8 4.3 2 3.1-1.4 2.7-7.1-0.8-7.7z" class="b"/>
    <path d="m2043.2 1443.8c-5.2-1.1-4.4 9.2 0.4 7.2 3.1-1 2.8-6.5-0.4-7.2z" class="b"/>
    <path d="m2045.9 1452.1c-2.7-0.1-3.8 3.5-2.5 5.5 0.8 1.5 2.9 1.8 4.1 0.8 2.1-1.7 1.3-6-1.6-6.3z" class="b"/>
    <path d="m2048.1 1461.2c-2.3-0.1-3.4 2.9-2.4 4.8 0.7 1.7 3.3 2.1 4.3 0.5 1.6-1.7 0.5-5.3-1.9-5.3z" class="b"/>
    <path d="m2049.7 1469.7c-2-0.1-3.1 2.3-2.5 4 0.3 1.6 2.4 2.6 3.7 1.5 1.9-1.4 1.3-5.3-1.3-5.5z" class="b"/>
    <path d="m2050.8 1478.3c-2.2-0.4-3.4 2.5-2.3 4.2 0.5 1.1 2 1.6 2.9 0.9 1.8-1.1 1.5-4.6-0.6-5.1z" class="b"/>
    <path d="m2050.9 1486.2c-1.6 0.1-2.4 2.3-1.4 3.6 0.7 1.2 2.7 1 3.1-0.4 0.6-1.3-0.2-3.1-1.7-3.2z" class="b"/>
    <path d="m2050.1 1500.2c-0.4 1.1 0.4 1.9 1.3 2.3 2.8-3.5-1-3.9-1.3-2.3z" class="b"/>
    <path d="m2051.3 1493.4c-1.5-0.1-2.1 1.9-1.3 3 0.5 1.1 2.2 0.9 2.7-0.2 0.6-1.1 0-2.8-1.4-2.8z" class="b"/>
    <path d="m2004.5 1398.6 21.8-12.3c-12.8 2.6-21.8 12.3-21.8 12.3z" class="b"/>
  </g>
</svg>