<svg xmlns="http://www.w3.org/2000/svg" xmlns:xlink="http://www.w3.org/1999/xlink"  viewBox="0 0 2267.7 2267.7"><style>.B{fill:#fff}.C{fill-rule:evenodd}.D{fill:#cddc39}.E{fill:#29b6f6}</style><path fill="#81d4fa" d="M0 3.287h2267.8v2264.4H0z" class="C"/><g class="C" transform="matrix(7.2758 0 0 7.4904 3649.2 -4264.6)"><path d="M-409.21 835.855h127.01c.689 0 1.501-.605 1.244-1.244l-6.216-15.436c-.257-.639-2.886-1.244-3.575-1.244h-109.91c-.689 0-3.317.605-3.575 1.244l-6.216 15.436c-.257.639.555 1.244 1.244 1.244z" fill="#1a1a1a"/><path d="M-355.99 781.605h20.557v39.579c-6.443 2.679-13.142 3.088-20.557 0z" fill="#333"/><path d="M-337.34 781.605h1.913v39.321c-.378.47-1.136 1.088-1.93 1.096z" fill="#212121"/><path d="M-409.21 835.855h127.01c.689 0 1.501-.126 1.244-.26l-6.216-3.222c-.257-.133-2.886-.26-3.575-.26h-109.91c-.689 0-3.317.126-3.575.26l-6.216 3.222c-.257.133.555.26 1.244.26z" fill="#424242"/><rect transform="matrix(1 0 0 -1 -624.49 -26.865)" x="135.2" y="-825.42" width="287.17" height="177.48" ry="12.307" class="B"/><path fill="#b2dfdb" d="M-484.12 610.89h276.62v164.86h-276.62z"/><path d="M-459.8 612.75h228.17v162.99H-459.8z" class="B"/><path d="M-459.8 612.75h228.17v40.136H-459.8zm0 144.45h228.17v18.542H-459.8z" fill="#ffca28"/><path d="M-489.34 606.02v177.31h287.25V606.02zm6.771 9.163h272.46v158.25h-272.46z" fill="#4d4d4d"/><g fill="#ffca28"><use xlink:href="#B"/><use xlink:href="#B" x="42.7" y="24.98"/><use xlink:href="#B" x="87.21" y="-.59"/><use xlink:href="#B" x="131.93" y="24.98"/><use xlink:href="#B" x="176.68"/></g><g class="B"><use xlink:href="#C"/><use xlink:href="#C" x="42.69" y="24.98"/><use xlink:href="#C" x="87.2" y="-.6"/><use xlink:href="#C" x="131.92" y="24.98"/><use xlink:href="#C" x="176.67"/><path d="M-347.77 680.435c-6.858-.016-13.108 5.899-13.429 12.76-.498 6.347 3.994 12.71 10.217 14.204 6.134 1.657 13.206-1.55 15.839-7.374 2.805-5.772.929-13.443-4.448-17.05a13.91 13.91 0 0 0-8.178-2.54z"/></g><circle cx="-347.53" cy="694.125" r="12.653" fill="#f06292"/><path d="M-344.73 706.485c-5.989 1.197-12.296-2.001-14.554-7.675s-.141-12.152 5.033-15.397 11.927-2.332 16.053 2.17l-9.081 8.486z" fill="#d32f2f"/><path d="M-345.05 706.535a12.653 12.653 0 1 1 6.85-20.956l-9.329 8.548z" fill="#e53935"/><path d="M-351.21 706.245c-5.041-1.648-8.767-6.357-8.962-11.656s2.937-10.158 7.843-12.171 10.548-.751 14.13 3.159l-9.174 8.517z" fill="#d84315"/><path d="M-351.46 706.155a12.653 12.653 0 1 1 13.259-20.575l-9.329 8.548z" fill="#f4511e"/><g class="D"><use xlink:href="#D"/><use xlink:href="#D"/><use xlink:href="#D"/><use xlink:href="#D"/><use xlink:href="#D"/><use xlink:href="#D"/><use xlink:href="#D"/><use xlink:href="#D"/><use xlink:href="#D"/></g><path d="M-358.84 688.425c2.43-4.109 7.385-7.237 12.148-6.921s8.943 3.287 10.809 7.681L-348 694.714z" fill="#e64a19"/><path d="M-358.64 687.965c2.43-4.109 7.183-6.78 11.947-6.463s8.943 3.287 10.809 7.681l-11.678 5.068z" fill="#c0ca33"/><path d="M-349.11 681.575c3.541-.322 7.492.816 10.118 3.213s4.121 5.789 4.121 9.344l-12.807.022z" fill="#afb42b"/><path d="M-348.67 681.525c3.541-.322 7.053.86 9.679 3.257s4.108 6.244 4.108 9.799l-12.597-.171z" fill="#ec407a"/><path d="M-348.67 681.525a12.654 12.654 0 0 1 13.8 12.601h-12.653z" class="D"/><circle cx="-347.55" cy="694.125" r="4.956" class="B"/></g><g fill="#b3b3b3"><path d="M493.64 932.189V910.94l28.946-19v44.947zm-5.6-.03v-21.375l-28.946-19.113v45.216z"/><path d="M520.102 931.23h-58.825l-45.13 27.679 46.998 31.527h58.824l43.885-31.3z"/><path d="M520.102 931.23h-29.177l1.76 59.204h29.284l43.885-31.3z"/><g class="C" transform="matrix(.61622 0 0 .37332 783.408 761.234)"><circle cx="-500.28" cy="535.92" r="13.89"/><circle cx="-448.257" cy="535.92" r="13.89"/><circle transform="matrix(.7089 0 0 .56364 -117.94 257.6)" cx="-500.28" cy="535.92" r="13.89"/><circle transform="matrix(.3 0 0 .3 -355.88 370.73)" cx="-500.28" cy="535.92" r="13.89"/><circle transform="matrix(.3 0 0 .3 -303.6 370.98)" cx="-500.28" cy="535.92" r="13.89"/></g></g><g class="C" transform="matrix(7.2758 0 0 7.4904 3649.2 -4264.6)"><path d="M-449 686.28l14.164-8.334 14.164 8.334c.196.115.41.183.41.41v16.333a.41.41 0 0 1-.41.41l-14.164 8.081-14.164-8.081c-.197-.113-.41-.183-.41-.41V686.69a.41.41 0 0 1 .41-.41z" fill="#ffeb3b"/><path d="M-445.24 696.43l6.435 1.999 8.601-6.928 4.874 3.261c.29.194 5.062-5.572 5.062-5.345v13.615c0 .227-.191.393-.524.588l-14.051 8.282-13.957-8.342c-.331-.198-.618-.301-.618-.528v-3.699c0-.227 3.812-3.016 4.176-2.903z" fill="#0cf"/><g class="B"><rect transform="matrix(-.75791 .65235 .90064 .43456 0 0)" x="894.05" y="259.59" width="1.105" height="5.861" ry=".435"/><path d="M-445.2 695.68a.786.786 0 0 0-.336.118l-4.702 3.121v1.237a.71.71 0 0 0 .169-.08l5.619-3.73c.192-.128.21-.3.039-.386l-.471-.237c-.085-.043-.201-.056-.319-.043z"/><ellipse cx="-438.83" cy="698.36" rx="1.584" ry=".932"/><rect transform="matrix(.94196 .33571 -.75711 .65329 0 0)" x="278.12" y="914.46" width="1.299" height="11.825" ry=".39"/><rect transform="matrix(-.91132 .41169 .80692 .59066 0 0)" x="932.21" y="520.19" width="1.288" height="5.296" ry=".393"/><path d="M-419.6 687.33a.41.41 0 0 0-.237.109l-5.865 6.38c-.115.125-.023.295.204.38l.629.237c.228.086.504.055.619-.07l4.346-4.727.305-2.309z"/><circle cx="-445.22" cy="696.11" r="1.563"/></g><circle cx="-445.22" cy="696.11" r="1.138" class="E"/><circle cx="-438.89" cy="698.62" r="1.563" class="B"/><circle cx="-438.89" cy="698.62" r="1.138" class="E"/><circle cx="-430.19" cy="691.25" r="1.563" class="B"/><circle cx="-430.19" cy="691.25" r="1.138" class="E"/><circle cx="-425.52" cy="694.85" r="1.563" class="B"/><circle cx="-425.52" cy="694.85" r="1.138" class="E"/><g transform="translate(-450.35 674.73) scale(.14216)" class="B"><rect x="1269.4" y="138.7" width="27.677" height="74.868" ry="4.116"/><rect x="1308.2" y="108.39" width="27.677" height="105.17" ry="5.782"/><rect x="1346.9" y="89.571" width="27.677" height="123.99" ry="5.049"/><rect x="1388.4" y="54.215" width="27.677" height="159.35" ry="4.973"/></g><g fill="#3f51b5"><rect x="-268.95" y="693.22" width="3.935" height="10.643" ry=".585"/><rect x="-263.44" y="688.91" width="3.935" height="14.952" ry=".822"/><rect x="-257.93" y="686.24" width="3.935" height="17.627" ry=".718"/><rect x="-252.05" y="681.21" width="3.935" height="22.653" ry=".707"/></g><circle cx="-306.31" cy="715.41" r="7.3" fill="#673ab7" fill-opacity=".642"/><circle cx="-304.7" cy="724.24" r="7.3" fill="red" fill-opacity=".665"/><circle cx="-298.13" cy="719.26" r="7.3" fill="#4fc3f7" fill-opacity=".682"/><g transform="translate(-637.58 -66.497) scale(1.0528)"><path d="M239.86 735.52l-3.223 5.583c.709.785 2.596 4.082 2.971 5.178h6.438c-.54-1.974-4.899-9.583-6.186-10.761z" fill="#ffc107"/><path d="M239.4 735.29c-1.978-.52-10.749-.55-12.413-.023l3.224 5.583c1.034-.222 4.834-.208 5.97.016l3.219-5.576z" fill="#689f38"/><path d="M246.08 746.8h-6.447c-.326 1.007-2.237 4.289-2.999 5.163l3.219 5.576c1.44-1.455 5.85-9.033 6.226-10.738z" fill="#03a9f4"/><path d="M226.56 735.55c-1.44 1.455-5.849 9.033-6.226 10.738h6.447c.325-1.007 2.237-4.29 2.999-5.163l-3.219-5.576z" fill="#f44336"/><path d="M226.8 746.8h-6.439c.54 1.974 4.899 9.583 6.187 10.761l3.223-5.583c-.709-.785-2.596-4.082-2.971-5.178z" fill="#9c27b0"/><path d="M236.19 752.23c-1.034.222-4.834.208-5.97-.016l-3.219 5.576c1.978.52 10.749.549 12.413.023l-3.223-5.583z" class="D"/><circle cx="223.08" cy="740.83" r="1.843" class="B"/><circle cx="223.08" cy="740.83" r="1.313" fill="#f44336"/><circle cx="233.17" cy="735.07" r="1.843" class="B"/><circle cx="233.17" cy="735.07" r="1.313" fill="#689f38"/><circle cx="243.05" cy="740.5" r="1.843" class="B"/><circle cx="243.05" cy="740.5" r="1.313" fill="#ffc107"/><circle cx="243.38" cy="752.45" r="1.843" class="B"/><circle cx="243.38" cy="752.45" r="1.313" fill="#03a9f4"/><circle cx="233.17" cy="758.42" r="1.843" class="B"/><circle cx="233.17" cy="758.42" r="1.313" class="D"/><circle cx="223.07" cy="752.45" r="1.843" class="B"/><circle cx="223.07" cy="752.45" r="1.313" fill="#9c27b0"/></g><g fill="#ffa000"><rect x="-448.42" y="623" width="55" height="23.214" ry="2.893"/><rect x="-385.21" y="623" width="148.21" height="23.214" ry="2.893"/></g></g><path fill="#456fd8" d="M1160.316 1477.383l5.748 5.918 26.44-27.228-5.748-5.925z"/><path fill="#567fe5" d="M1165.315 1482.53l6.504 6.696 26.44-27.228-6.504-6.696z"/><path fill="#3258b6" d="M1171.063 1488.447l6.497 6.704 26.447-27.243-6.504-6.696z"/><path d="M1208.598 1456.073l-10.346-10.659a4.875 5.019 0 0 0-6.897 0l17.243 17.76a4.875 5.019 0 0 0 .008-7.1z" fill="#ff72b1"/><path d="M1209.348 1462.403l-17.244-17.76a.792.792 0 0 0-1.15 0l-4.198 4.33a.85.85 0 0 0 0 1.183l17.244 17.767c.32.33.83.33 1.15 0l4.198-4.33a.8.824 0 0 0 0-1.183z" fill="#c6c6c6"/><path fill="#fafafa" d="M1177.553 1495.15l-17.244-17.767-2.874 20.726z"/><path fill="#567fe5" d="M1165.227 1497.068l-6.78-6.988-1.761 8.8z"/><g transform="matrix(.92832 0 0 .9557 789.592 1296.198)"><path d="M840 187c-18 0-33 5.908-33 28a6 6 0 0 0 6 6h54a6 6 0 0 0 6-6c0-22.09-15-28-33-28z" fill="#44b2b6"/><g class="B"><path d="M826 189l9 15 6-9z"/><path d="M840 195l6 9 9-15z"/></g><circle cx="840" cy="177" r="18" fill="#f1cdb0"/><path d="M858.61 173.17a18.76 18.76 0 0 0-.469-1.821c-2.4-7.73-9.61-13.35-18.14-13.35-.564 0-1.12.036-1.672.084-.42.04-.837.096-1.249.163l-.184.028a19.88 19.88 0 0 0-2.849.725h-.096c-7.209 2.423-12.47 9.043-12.898 16.962a21.177 21.177 0 0 0 5.624-2.27c3.179-1.835 5.6-4.254 6.995-6.692h.628c3.091 6.405 11.406 11 21.2 11a30.65 30.65 0 0 0 3.46-.215c.011-.263.04-.521.04-.785.01-1.31-.12-2.59-.38-3.83z" fill="#ab6125"/></g><g fill="#ffa000" class="C" transform="matrix(7.2758 0 0 7.4904 3649.2 -4264.6)"><rect x="-279.05" y="764.02" width="35.86" height="5.303" ry=".758"/><rect x="-332.63" y="764.02" width="35.86" height="5.303" ry=".758"/></g><defs><path id="B" d="M-415.063 706.266l-19.84 11.285-19.694-11.54.147-22.825 19.84-11.285 19.694 11.54z"/><path id="C" d="M-418.137 704.469l-16.736 9.519-16.612-9.734.124-19.253 16.736-9.519 16.612 9.734z"/><path id="D" d="M-358.42 687.685a12.652 12.652 0 0 1 22.539 1.497l-11.647 4.944z"/></defs></svg>