<svg xmlns="http://www.w3.org/2000/svg" viewBox="0 0 493.985 433.829"><defs><linearGradient id="a"><stop stop-color="#404040" offset="0"/><stop stop-color="#202020" offset=".125"/><stop offset="1"/></linearGradient></defs><path d="M306.788 373.283c-1.464 5.576 1.052 11.915 3.374 17.258 2.322 5.344 2.804-.588 5.912 4.114 3.108 4.703 3.693 11.947 6.522 14.698 2.828 2.751 2.35-5.81 4.791-3.693 2.44 2.117 4.068 7.332 4.972 12.162.904 4.83-2.79 7.194-1.357 7.157 1.431-.036 3.253-5.237 7.085-7.303 3.832-2.067 8.167.613 8.244-.963.077-1.576-4.62-1.55-7.936-5.34-3.315-3.792-4.521-5.4-5.325-9.824-.804-4.424 3.942-4.926 2.11-7.872-1.833-2.945-4.65 2.45-9.44-3.91-4.79-6.361-4.985-17.41-9.723-21.532-4.737-4.12-7.765-.529-9.229 5.048zM399.187 254.513c3.716-4.409 10.347-6.003 16.052-7.182 5.706-1.18 1.134 2.63 6.769 2.463 5.635-.167 11.893-3.86 15.771-3.133 3.879.727-3.396 5.268-.26 6.044 3.137.776 8.338-.898 12.807-2.94 4.469-2.044 4.274-6.424 5.069-5.233.795 1.192-2.408 5.676-1.89 10 .518 4.322 5.205 6.322 3.96 7.293-1.243.97-3.927-2.885-8.935-3.411-5.009-.527-7.018-.587-11.098 1.304-4.08 1.89-1.756 6.06-5.22 6.258-3.463.198-.675-5.212-8.634-5.464-7.959-.253-17.103 5.952-23.2 4.452-6.098-1.5-4.906-6.043-1.19-10.452zM259.601 361.36c-3.081 4.873-2.6 11.676-2.002 17.472.597 5.795 2.85.286 4.391 5.709s-.091 12.504 1.773 15.981c1.864 3.477 3.997-4.828 5.683-2.072 1.687 2.757 1.661 8.22 1.062 13.097-.599 4.876-4.834 6.013-3.458 6.411 1.376.398 4.685-4.008 8.962-4.82 4.278-.81 7.6 3.054 8.15 1.575.55-1.478-3.936-2.874-5.95-7.49-2.014-4.615-2.677-6.513-2.106-10.973.571-4.46 5.247-3.503 4.39-6.865-.855-3.362-5.171.929-7.815-6.583-2.643-7.51.513-18.101-2.757-23.463-3.27-5.361-7.241-2.852-10.322 2.02zM371.091 206.915c1.354-5.605 6.573-9.994 11.15-13.599 4.575-3.605 2.19 1.847 7.155-.821 4.966-2.669 8.914-8.77 12.707-9.852 3.794-1.083-.683 6.23 2.47 5.522 3.152-.707 7.057-4.529 10.142-8.354 3.085-3.825.952-7.656 2.196-6.945 1.243.71.383 6.153 2.778 9.789s7.482 3.33 6.803 4.754c-.679 1.424-4.803-.825-9.518.942-4.716 1.768-6.54 2.613-9.345 6.127-2.804 3.515 1.137 6.206-1.872 7.931-3.01 1.726-2.934-4.36-10.167-1.029-7.233 3.331-12.639 12.97-18.764 14.353-6.126 1.384-7.09-3.214-5.736-8.818zM222.652 57.643c3.648-4.465 3.992-11.276 4.1-17.101.108-5.826-2.795-.63-3.669-6.199-.874-5.569 1.603-12.401.173-16.078-1.43-3.677-4.552 4.31-5.892 1.37-1.341-2.94-.655-8.361.53-13.13 1.184-4.77 5.525-5.385 4.207-5.947-1.318-.561-5.134 3.413-9.479 3.7-4.344.289-7.174-3.95-7.899-2.548-.724 1.402 3.56 3.329 5 8.154 1.441 4.826 1.87 6.79.764 11.148-1.106 4.359-5.632 2.844-5.189 6.284.443 3.441 5.247-.296 6.962 7.48 1.716 7.775-2.698 17.907-.1 23.623 2.598 5.717 6.844 3.707 10.492-.757zM58.49 266.646c-3.966 4.185-10.678 5.391-16.442 6.238-5.763.847-.979-2.692-6.614-2.852-5.635-.16-12.097 3.164-15.926 2.213-3.828-.951 3.697-5.062.61-6.019-3.086-.956-8.375.413-12.956 2.193-4.58 1.78-4.64 6.165-5.363 4.929-.725-1.236 2.732-5.527 2.466-9.873-.266-4.345-4.829-6.614-3.53-7.51 1.298-.898 3.753 3.107 8.723 3.923 4.969.817 6.972.993 11.155-.658 4.182-1.65 2.105-5.947 5.574-5.944 3.469.003.372 5.241 8.302 5.956 7.93.714 17.42-4.95 23.42-3.1 6 1.852 4.546 6.318.581 10.504z" fill="#1a1a1a" fill-rule="evenodd" stroke="#000" stroke-width="1.003"/><path d="M262.915 330.211c-17.113 31.023-33.863 29.46-33.863 29.46s-83.338-6.195-137.234-44.525c-47.957-34.107-67.643-69.639-74.278-122.63C9.96 131.98 32.53 77.818 33.354 79.206c3.184-1.696 63.163 27.275 128.452 69.084 69.024 44.2 141.502 101.848 141.018 102.165 0 0-3.64 15.717-14.23 29.574-12.685 16.6-17.089 34.6-25.686 50.182z" fill="#bc2c64" fill-rule="evenodd" stroke="#000" stroke-width="1.003"/><path d="M303.542 248.457s22.528-16.16 37.839-35.02c21.635-26.652 26.476-29.666 26.002-35.977-2.107-28.297-19.665-57.727-42.601-85.193-34.25-41.014-95.88-65.814-156.584-66.057-31.671-.127-58.398 6.412-86.617 19.432-31.698 14.625-46.12 31.637-46.12 31.637s58.156 25.074 125.215 68.166c67.06 43.091 142.86 103.014 142.86 103.014z" fill="#bc2c64" fill-rule="evenodd" stroke="#000" stroke-width="1.003"/><path d="M350.847 366.073c6.176 6.743 10.027 10.517 11.87 13.044 1.845 2.528 8.423 7.202 11.459 7.307 3.035.104 9.745 3.25 14.651.338 4.906-2.912 13.856-7.616 16.794-8.255 2.938-.638 9.253 1.805 16.899-1.72 3.901-1.798 16.994-16.975 17.53-23.713.773-9.729-4.54-16.775-1.702-18.664 3.493-2.324 6.469-10.17 5.589-16.854-.88-6.684-2.65-10.849-8.351-15.89-5.7-5.042-9.373-6.549-14.494-12.68-3.51-4.204-16.319-5.896-18.115-3.894-6.15 6.853-5.84 7.9-9.364 13.653-3.524 5.752-9.504 19.635-13.373 24.677-3.87 5.043-13.823 16.431-19.321 19.668-7.713 4.54-11.38 11.733-11.55 14.273-.169 2.54 1.134 8 1.48 8.71z" fill="#1a1a1a" fill-rule="evenodd" stroke="#000" stroke-width="1.003"/><path d="M360.573 428.933c-.832 5.573 1.323 4.325 3.653 4.214 2.33-.11 3.952.361 5.668-4.657 1.716-5.018-2.5-8.01 1.197-15.415 3.696-7.405 5.125-6.3 13.587-14.203 8.463-7.902 20.134-16.115 20.26-17.406.126-1.29-10.41 4.897-19.754 12.243-9.345 7.347-11.475 8.337-17.628 17.143-6.152 8.805-6.15 12.506-6.982 18.08zM440.157 338.018c.608 1.273 5.954-2.8 12.986-8.564 7.032-5.764 6.387-10.527 15.143-14.494 8.757-3.966 13.737 1.6 19.882-1.374 6.144-2.974 5.801-7.945 4.697-10.524-1.104-2.58-1.652-1.758-9.113.208-7.461 1.965-12.472 2.38-20.731 7.653-8.26 5.272-6.593 6.664-12.308 13.438-5.716 6.774-11.163 12.384-10.556 13.658z" fill="#1a1a1a" fill-rule="evenodd" stroke="#000" stroke-width="1.003"/><path d="M273.519 300.908c1.655-2.96 5.637-10.397 6.566-12.024 1.798-3.15 5.12-8.57 6.493-9.817 2.262-2.054 7.1-10.059 7.309-12.421.208-2.362-1.156-7.118-3.342-6.885-4.798.514-11.133 3.822-12.818 4.822-1.686 1-5.555 4.686-8.186 9.102-1.4 2.35-2.631 7.612-3.249 10.808-.617 3.195-1.43 10.828-.207 12.224 1.221 1.395 6.136 6.511 7.433 4.19z" fill="#e6e6e6" fill-rule="evenodd" stroke="#eaeaea" stroke-width="1.003"/><path d="M151.012 324.925c7.647-.456 13.519-3.247 11.943-9.646-1.577-6.399-10.6-16.405-18.248-15.948-7.647.456-13.917 11.374-12.34 17.772 1.576 6.399 10.998 8.278 18.645 7.822zM139.427 236.905c8.384 3.608 14.635-8.788 17.596-14.493 5.031-9.693 5.05-20.057-.889-25.873-3.939-3.858-7.542-7.146-17.734-6.474-6.378.42-19.73 2.985-22.29 14.677-.778 3.555 1.985 22.984 23.317 32.164zM38.486 228.537c9.202-9.205 13.017-24.865 4.94-39.831-3.886-7.2-5.01-10.724-10.038-12.554-5.028-1.83-7.719 2.656-9.641 7.283-2.792 6.72.175 23.795 5.088 35.163 2.936 6.792 6.881 12.71 9.65 9.94z" fill="#1a1a1a" fill-rule="evenodd" stroke="#000" stroke-width="1.003"/><path d="M124.032 47.392c5.603-9.529 18.01-16.338 32.714-13.537 7.073 1.347 10.347 1.389 13.126 4.939 2.78 3.55-.387 6.77-3.86 9.413-5.045 3.84-20.303 5.605-31.174 4.448-6.497-.691-12.493-2.395-10.806-5.263z" fill="#1a1a1a" fill-rule="evenodd" stroke="#000" stroke-width=".859"/><path d="M205.52 91.603c-8.835-.532-11.142 12.38-12.282 18.35-1.938 10.143.984 19.292 8.167 22.547 4.764 2.159 9.054 3.92 18.359.105 5.823-2.387 17.535-8.87 16.603-19.996-.283-3.382-8.37-19.65-30.848-21.006z" fill="#1a1a1a" fill-rule="evenodd" stroke="#000" stroke-width=".957"/><path d="M304.938 95.165c-6.214-3.573-12.362-4.521-14.739.991-2.377 5.513-.987 17.487 5.228 21.06 6.214 3.574 17.251-1.253 19.63-6.765 2.378-5.513-3.904-11.712-10.118-15.286z" fill="#1a1a1a" fill-rule="evenodd" stroke="#000" stroke-width=".93"/><path d="M278.195 261.421c3.609-1.078 10.759-4.89 14.021-3.762 3.263 1.127 2.344 4.606 3.807 3.894 1.463-.711 3.717-9.1 4.06-10.443.342-1.343-6.433-5.254-7.622-6.396-1.188-1.14-9.484-8.01-17.72-14.244-8.232-6.232-14.054-10.284-14.054-10.284s-2.173 4.557-3.467 7.543c-2.064 4.763-3.8 7.983-4.552 10.158-.752 2.175-2.878 5.363-4.995 9.608-2.347 4.705-4.29 9.42.14 13.508 4.432 4.089 12.212 1.475 17.058.838 4.847-.638 8.298 1.081 13.323-.42zM308.142 221.708c-.118 3.765-2.66 10.64-.735 13.505 1.924 2.866 5.936 1.522 5.622 3.12-.314 1.596-8.047 6.497-9.258 7.171-1.21.674-6.724-4.875-8.131-5.732-1.407-.857-9.557-6.651-17.69-13.019-8.133-6.368-13.5-10.686-13.5-10.686s3.2-4.007 5.757-6.021c4.076-3.213 6.746-5.716 8.656-6.999 1.91-1.282 4.449-4.153 8.011-7.286 3.948-3.472 8.01-6.555 13.095-3.318 5.086 3.238 4.55 11.429 5.172 16.277.623 4.848 3.167 7.745 3.002 12.987z" fill="#1a1a1a" fill-rule="evenodd" stroke="#000" stroke-width="1.003"/><path d="M345.392 205.27c-2.37 3.728-8.589 10.206-9.675 11.732-2.567 3.603-6.552 6.725-8.71 8.48-2.372 1.927-8.436 8.968-10.71 9.645-2.273.676-7.205.291-7.413-1.897-.457-4.805 1.517-11.673 2.16-13.524.644-1.85 3.481-6.38 7.281-9.84 2.022-1.842 6.933-4.101 9.94-5.345 3.007-1.244 10.324-3.566 11.936-2.648 1.612.918 6.618 1.154 5.192 3.398z" fill="#e6e6e6" fill-rule="evenodd" stroke="#eaeaea" stroke-width="1.003"/><path d="M419.963 339.943c2.696-3.215 9.488-10.867 7.551-13.732-1.937-2.865-7.357-10.47-10.666-7.955-3.308 2.515-5.345 8.762-3.96 15.34 1.386 6.576 4.378 9.562 7.075 6.347zM426.4 363.246c6.003-7.408 4.293-20.811 3.405-19.655-.887 1.156-4.89 11.834-8.162 15.36-4.315 4.647-11.743 9.965-13.107 11.445-1.365 1.48 11.942.158 17.865-7.15zM405.554 361.21c-2.863 3.067-9.635 10.737-12.714 9.162-3.079-1.575-11.285-6.032-9.19-9.621 2.095-3.59 8.048-6.37 14.744-5.793 6.696.578 10.023 3.186 7.16 6.252z" fill="#e6e6e6" fill-rule="evenodd" stroke="#000" stroke-width="1.003"/><path d="M305.615 249.8c-5.31 17.04-17.558 33.584-24.424 45.005-14.634 44.898-26.631 43.094-28.183 61.984-.867 10.562 14.436 23.993 19.683 25.975 8.382 3.167 40.225.91 58.996-3.857 17.124-4.35 13.346-11 15.038-18.96 1.364-6.418 2.5-10.983 9.584-16.592 11.24-8.902 18.027-14.1 24.991-25.776 10.166-17.044 9.559-20.564 18.167-32.318 8.608-11.753 18.567-10.66 17.547-16.822-2.473-14.942-4.552-29.07-12.899-49.497-.786-10.484-1.742-18.874-8.086-24.081-4.748-3.897-18.904-9.579-26.319-4.14-21.652 15.886-18.295 13.975-33.817 31.912-8.644 9.989-16.428 15.645-30.278 27.167z" fill="#1a1a1a" fill-rule="evenodd" stroke="#000" stroke-width="1.003"/><path d="M293.663 370.285c2.592 3.106 7.834 6.643 18.495 7.335 10.66.693 20.049-4.835 27.311-5.988 4.489-.717 3.357-8.853 5.08-16.038 1.724-7.186 5.475-8.195 3.62-10.939-1.855-2.744-11.115 1.057-15.538-1.119s-7.724-7.006-13.083-4.939c-7.426 2.864-8.275 6.83-8.025 10.342.277 3.884-2.834 9.487-8.137 11.104-5.302 1.617-12.316 7.135-9.723 10.24z" fill="#ececec" fill-rule="evenodd" stroke="#ccc" stroke-width="1.003"/><path d="M390.754 277.715c.15-3.43.474-7.26-1.826-10.123-1.749-2.356-4.318-4.204-5.19-7.125-1.279-2.274-3.452-6.168-2.297-8.908.993-3.256 3.117-5.056 6.256-6.602 2.926-1.696 5.867-3.882 6.953-7.24 1.06-2.918-.244-8.064.64-11.003 1.334-2.496 4.956 1.442 6.132 3.653 3.053 5.06 4.675 12.944 5.664 18.687.797 5.495 1.858 7.945 3.11 13.359.21 2.35 1.526 5.295-.268 7.302-2.46 2.623-6.695 1.754-9.197 4.325-2.583 2.354-4.27 5.48-6.612 8.044-2.622.962-2.8-2.756-3.365-4.368z" fill="#ccc" fill-rule="evenodd" stroke="#000" stroke-width="1.003"/></svg>