<svg xmlns="http://www.w3.org/2000/svg" xmlns:xlink="http://www.w3.org/1999/xlink" viewBox="0 0 1062.992 1062.992">
  <defs/>
  <defs>
    <linearGradient id="a" x1="391.43" x2="432.86" y1="383.08" y2="479.51" gradientTransform="translate(-50.467 14.647)" gradientUnits="userSpaceOnUse">
      <stop offset="0" stop-color="#5d536c"/>
      <stop offset="1" stop-color="#5d536c" stop-opacity=".1"/>
    </linearGradient>
    <linearGradient id="b" x1="391.43" x2="432.86" y1="383.08" y2="479.51" gradientTransform="matrix(1.1319 0 0 1.3199 -164.002 48.907)" gradientUnits="userSpaceOnUse" xlink:href="#a"/>
    <linearGradient id="c" x1="391.43" x2="432.86" y1="383.08" y2="479.51" gradientTransform="matrix(1.1319 0 0 1.3199 -1194.993 -422.87)" gradientUnits="userSpaceOnUse" xlink:href="#a"/>
  </defs>
  <path fill="#3cc399" fill-opacity=".5" fill-rule="evenodd" d="M271.78 715.774s33.904 36.884 61.859 37.896c27.956 1.01 58.885-44.969 117.175-46.99 58.289-2.02 77.324 14.654 102.305 24.254 24.982 9.6 67.807 13.643 83.867 8.085 16.06-5.558 38.067-22.231 55.316-30.317 17.25-8.084 55.316-12.126 76.134-7.579 20.817 4.548 31.524 15.664 31.524 15.664s-20.818-10.61-43.42-7.58c-22.603 3.032-46.395 19.201-57.1 27.287-10.707 8.084-32.714 36.379-73.16 38.906-40.447 2.527-96.953-6.568-126.097-19.2-29.145-12.632-45.798-18.695-61.858-15.664-16.06 3.032-32.12 17.18-48.18 21.726-16.06 4.547-42.23 18.695-80.297 1.516-10.636-4.8-38.066-48.002-38.066-48.002z"/>
  <path fill="#3dc399" fill-opacity=".5" fill-rule="evenodd" d="M234.245 871.98s40.773 32.245 74.391 33.128c33.618.883 70.814-39.312 140.913-41.08 70.098-1.766 92.988 12.81 123.03 21.203 30.043 8.393 81.545 11.927 100.857 7.068 19.313-4.859 45.78-19.436 66.523-26.503 20.743-7.068 66.522-10.601 91.558-6.626 25.035 3.976 37.91 13.693 37.91 13.693s-25.035-9.276-52.216-6.626c-27.181 2.65-55.793 16.786-68.67 23.852-12.875 7.068-39.34 31.803-87.981 34.012-48.64 2.209-116.594-5.742-151.643-16.785-35.049-11.043-55.078-16.343-74.39-13.693-19.313 2.65-38.625 15.018-57.94 18.994-19.312 3.975-50.785 16.343-96.564 1.325-12.791-4.196-45.78-41.963-45.78-41.963z"/>
  <path fill="#ff3050" fill-rule="evenodd" d="M529.971 69.53c-18.559.02-36.917 4.45-53.944 13.014-1.996-5.833-6.624-9.627-11.752-9.634-7.055 0-12.773 7.064-12.773 15.775.003 2.918.662 5.777 1.903 8.26-.825.7-1.643 1.41-2.454 2.132a10.432 10.432 0 00-2.185-.254c-6.703.008-12.26 6.41-12.73 14.666-17.263 19.15-29.874 43.235-36.563 69.838-7.046.014-12.752 7.07-12.753 15.771.002 6.382 3.119 12.134 7.896 14.571a182.81 182.81 0 00-.597 13.597c.017.648.037 1.297.06 1.945h-.31v188.003c-.071.152-.192.398-.27.563-8.245 1.667-48.714 9.51-60.922 4.484-19.162-7.887-28.384-28.284-21.997-44.058 6.387-15.775 18.18-26.45 30.062-26.722 12.318-.282 14.063 1.875 18.705 7.606 6.387 7.887 6.39-15.776-6.385-23.663-12.773-7.887-42.286 1.713-52.385 14.183-6.387 7.887-17.19 24.82-17.19 49.758 0 23.661 8.38 41.892 18.48 54.363 14.906 18.407 38.554 22.592 51.352 23.552-13.281 13.18-29.118 23.206-46.607 23.206-51.095 0-63.104-13.983-78.471-43.943-15.463-30.144-11.86-65.908 1.37-107.034 13.339-41.462 44.253-100.84 31.48-138.583-7.788-23.012-47.447-70.415-85.768-38.868-38.321 31.548-19.618 72.67-19.618 72.67s22.355 27.601 22.355 11.829c0-15.774-12.774-31.55 0-47.323s38.323-7.884 38.323 15.776c0 32.517-33.535 72.125-47.448 98.583-22.81 43.377-58.219 152.389-15.968 224.766 50.64 86.754 101.97 84.476 165.612 77.74a224.64 224.64 0 0016.06-2.298c-7.265 8.313-14.704 15.113-22.034 19.262-39.824 22.54-95.411-19.467-157.637 14.341-36.514 19.84-38.273 51.734-76.328 43.032-22.401-5.122-31.528-21.2-31.528-48.15 0-37.906 38.162-15.367 38.162-15.367s-14.102-27.665-38.162-22.541c-21.32 4.539-31.529 32.784-28.21 61.47 3.318 28.685 20.741 58.395 53.928 66.592 33.186 8.196 41.485 0 92.093-29.708 45.578-26.757 68.032 8.194 111.174 14.341 43.143 6.147 82.969 2.05 104.54-24.586a74.041 74.041 0 002.15-2.809c-5.406 22.179-13.747 42.414-26.636 53.024-38.321 31.548-131.74 23.738-170.063 55.286-38.322 31.547-43.977 88.831-31.74 130.807 11.497 39.433 61.214 46.665 78.71 41.11 17.817-5.656 29.948-30.117 19.872-58.477 0 0-13.247-31.852-15.871-22.146-5.343 19.756 13.236 47.48-7.228 47.48-12.774 0-33.146-6.292-31.868-45.726.51-15.76 19.743-41.744 58.065-41.744 38.32 0 135.362-11.234 174.958-34.894 16.261-9.716 48.855-47.694 69.65-131.306 4.06-16.326 4.954-32.26 9.535-54.077 3.727-17.754 5.973-34.833 19.032-43.294 4.424-2.866 5.826-2.8 10.279 0 13.574 8.537 14.488 25.305 18.47 43.479 2.998 18.197 3.751 34.51 8.258 50.76 25.618 92.377 45.162 124.722 61.423 134.438 39.6 23.66 136.64 34.894 174.958 34.894 38.322 0 57.554 25.984 58.065 41.744 1.277 39.434-19.098 45.726-31.871 45.726-20.464 0-1.882-27.724-7.225-47.48-2.625-9.706-15.871 22.146-15.871 22.146-10.077 28.36 2.053 52.82 19.872 58.478 17.496 5.554 67.212-1.677 78.71-41.111 12.237-41.978 6.581-99.262-31.74-130.807-38.321-31.548-131.74-23.738-170.063-55.286-16.003-13.174-24.998-41.346-30.059-69.693 4.579 7.721 8.783 14.237 12.192 18.446 21.57 26.636 61.394 30.738 104.536 24.59 43.142-6.147 65.596-41.101 111.174-14.346 50.61 29.71 58.907 37.909 92.094 29.712 33.186-8.196 50.61-37.906 53.928-66.592 3.318-28.685-6.89-56.93-28.211-61.47-24.06-5.122-38.162 22.538-38.162 22.538s38.162-22.54 38.162 15.367c0 26.95-9.124 43.028-31.524 48.15-38.055 8.702-39.815-23.189-76.329-43.028-62.225-33.81-117.812 8.197-157.636-14.342-10.623-6.012-21.475-17.588-31.689-31.298 4.34.726 8.803 1.355 13.414 1.843 63.636 6.735 114.967 9.013 165.612-77.74 42.252-72.385 6.842-181.395-15.968-224.766-13.913-26.458-47.448-66.064-47.448-98.583 0-23.662 25.547-31.55 38.32-15.776 12.774 15.774 0 31.55 0 47.322 0 15.774 22.355-11.83 22.355-11.83s18.706-41.125-19.615-72.672c-38.322-31.548-77.983 15.857-85.771 38.868-12.774 37.744 18.145 97.12 31.483 138.583 13.23 41.124 16.829 76.888 1.367 107.034-15.368 29.96-27.373 43.943-78.47 43.943-10.93 0-21.218-3.955-30.651-10.142 13.315-1.629 33.434-6.78 46.648-23.097 10.098-12.47 18.476-30.702 18.476-54.363 0-24.941-10.797-41.872-17.184-49.758-10.098-12.47-39.614-22.07-52.389-14.183-12.773 7.887-12.774 31.55-6.387 23.663 4.641-5.731 6.386-7.888 18.704-7.606 11.882.271 23.68 10.948 30.066 26.722 6.386 15.773-2.832 36.172-21.994 44.058-13.548 5.577-64.14-5.107-64.14-5.107l8.322 16.323a263.215 263.215 0 01-9.647-16.172V288.613c3.411-2.947 5.445-7.762 5.451-12.903-.002-5.145-2.037-9.966-5.451-12.915v-33.588h-.106c.031-.649.06-1.297.084-1.946-.054-28.271-6.656-56.007-19.116-80.303 2.308-2.937 3.6-6.866 3.606-10.958 0-8.712-5.72-15.773-12.775-15.772-1.902.006-3.778.534-5.493 1.549-.304-8.426-5.923-15.065-12.753-15.07-.601.004-1.202.061-1.797.17-24.491-24.059-55.53-37.29-87.622-37.35z"/>
  <g transform="matrix(.603 1.49914 -1.16238 .77771 -222.786 1233.925)">
    <ellipse cx="8.811" cy="-548.73" fill="#fe8c4c" rx="12.857" ry="21.429"/>
    <ellipse cx="10.668" cy="-548.37" fill="#fc6843" rx="10.357" ry="18.214"/>
  </g>
  <path fill="#3fc399" fill-opacity=".5" fill-rule="evenodd" d="M177.525 798.086s32.626 32.245 59.528 33.128c26.901.883 56.666-39.313 112.76-41.08 56.096-1.766 74.411 12.81 98.451 21.203 24.04 8.393 65.253 11.927 80.707 7.068 15.454-4.86 36.632-19.436 53.231-26.503 16.6-7.068 53.232-10.601 73.266-6.626 20.033 3.976 30.336 13.694 30.336 13.694s-20.034-9.277-41.784-6.626c-21.75 2.65-44.646 16.785-54.95 23.852-10.303 7.067-31.481 31.803-70.404 34.012-38.922 2.208-93.299-5.743-121.345-16.786-28.047-11.042-44.074-16.343-59.528-13.693-15.454 2.65-30.91 15.019-46.364 18.994-15.454 3.975-40.639 16.344-77.271 1.325-10.236-4.196-36.633-41.963-36.633-41.963z"/>
  <g transform="matrix(-1.57211 .58803 -.4762 -1.94129 -102.331 -557.2)">
    <ellipse cx="8.811" cy="-548.73" fill="#fe8c4c" rx="12.857" ry="21.429"/>
    <ellipse cx="10.668" cy="-548.37" fill="#fc6843" rx="10.357" ry="18.214"/>
  </g>
  <g transform="matrix(-.22937 1.38428 -1.14958 -.27622 -375.012 453.767)">
    <ellipse cx="8.811" cy="-548.73" fill="#fe8c4c" rx="12.857" ry="21.429"/>
    <ellipse cx="10.668" cy="-548.37" fill="#fc6843" rx="10.357" ry="18.214"/>
  </g>
  <g transform="matrix(-.78575 -.53012 .33494 -1.24364 338.011 -290.577)">
    <ellipse cx="8.811" cy="-548.73" fill="#fe8c4c" rx="12.857" ry="21.429"/>
    <ellipse cx="10.668" cy="-548.37" fill="#fc6843" rx="10.357" ry="18.214"/>
  </g>
  <g transform="matrix(-.22937 1.38428 -1.14958 -.27622 -402.576 538.716)">
    <ellipse cx="8.811" cy="-548.73" fill="#fe8c4c" rx="12.857" ry="21.429"/>
    <ellipse cx="10.668" cy="-548.37" fill="#fc6843" rx="10.357" ry="18.214"/>
  </g>
  <g transform="matrix(.0384 1.41218 -1.17005 .06248 -341.486 873.907)">
    <ellipse cx="8.811" cy="-548.73" fill="#fe8c4c" rx="12.857" ry="21.429"/>
    <ellipse cx="10.668" cy="-548.37" fill="#fc6843" rx="10.357" ry="18.214"/>
  </g>
  <g transform="matrix(.61838 1.87919 -1.52182 .76359 -499.804 1106.969)">
    <ellipse cx="8.811" cy="-548.73" fill="#fe8c4c" rx="12.857" ry="21.429"/>
    <ellipse cx="10.668" cy="-548.37" fill="#fc6843" rx="10.357" ry="18.214"/>
  </g>
  <g transform="matrix(-.2699 1.07459 -.8933 -.33048 -420.81 544.578)">
    <ellipse cx="8.811" cy="-548.73" fill="#fe8c4c" rx="12.857" ry="21.429"/>
    <ellipse cx="10.668" cy="-548.37" fill="#fc6843" rx="10.357" ry="18.214"/>
  </g>
  <g transform="matrix(-.2699 1.07459 -.8933 -.33048 -299.746 780.094)">
    <ellipse cx="8.811" cy="-548.73" fill="#fe8c4c" rx="12.857" ry="21.429"/>
    <ellipse cx="10.668" cy="-548.37" fill="#fc6843" rx="10.357" ry="18.214"/>
  </g>
  <g transform="matrix(-.90213 -.15765 .12174 -1.14164 360.713 -236.07)">
    <ellipse cx="8.811" cy="-548.73" fill="#fe8c4c" rx="12.857" ry="21.429"/>
    <ellipse cx="10.668" cy="-548.37" fill="#fc6843" rx="10.357" ry="18.214"/>
  </g>
  <g transform="matrix(-.44114 .98442 -.82025 -.54777 -135.365 147.866)">
    <ellipse cx="8.811" cy="-548.73" fill="#fe8c4c" rx="12.857" ry="21.429"/>
    <ellipse cx="10.668" cy="-548.37" fill="#fc6843" rx="10.357" ry="18.214"/>
  </g>
  <g transform="matrix(.87238 -.32459 .27763 1.0993 398.28 821.169)">
    <ellipse cx="8.811" cy="-548.73" fill="#fe8c4c" rx="12.857" ry="21.429"/>
    <ellipse cx="10.668" cy="-548.37" fill="#fc6843" rx="10.357" ry="18.214"/>
  </g>
  <g transform="matrix(.09323 -.59143 .4911 .112 481.2 231.801)">
    <ellipse cx="8.811" cy="-548.73" fill="#fe8c4c" rx="12.857" ry="21.429"/>
    <ellipse cx="10.668" cy="-548.37" fill="#fc6843" rx="10.357" ry="18.214"/>
  </g>
  <g transform="matrix(-.603 1.49914 1.16238 .77771 1281.646 1230.477)">
    <ellipse cx="8.811" cy="-548.73" fill="#fe8c4c" rx="12.857" ry="21.429"/>
    <ellipse cx="10.668" cy="-548.37" fill="#fc6843" rx="10.357" ry="18.214"/>
  </g>
  <g transform="matrix(1.57211 .58803 .4762 -1.94129 1148.05 -560.628)">
    <ellipse cx="8.811" cy="-548.73" fill="#fe8c4c" rx="12.857" ry="21.429"/>
    <ellipse cx="10.668" cy="-548.37" fill="#fc6843" rx="10.357" ry="18.214"/>
  </g>
  <g transform="matrix(.22937 1.38428 1.14958 -.27622 1433.87 450.34)">
    <ellipse cx="8.811" cy="-548.73" fill="#fe8c4c" rx="12.857" ry="21.429"/>
    <ellipse cx="10.668" cy="-548.37" fill="#fc6843" rx="10.357" ry="18.214"/>
  </g>
  <g transform="matrix(.78575 -.53012 -.33494 -1.24364 720.847 -294.02)">
    <ellipse cx="8.811" cy="-548.73" fill="#fe8c4c" rx="12.857" ry="21.429"/>
    <ellipse cx="10.668" cy="-548.37" fill="#fc6843" rx="10.357" ry="18.214"/>
  </g>
  <g transform="matrix(.22937 1.38428 1.14958 -.27622 1461.434 535.288)">
    <ellipse cx="8.811" cy="-548.73" fill="#fe8c4c" rx="12.857" ry="21.429"/>
    <ellipse cx="10.668" cy="-548.37" fill="#fc6843" rx="10.357" ry="18.214"/>
  </g>
  <g transform="matrix(-.0384 1.41218 1.17005 .06248 1400.344 870.459)">
    <ellipse cx="8.811" cy="-548.73" fill="#fe8c4c" rx="12.857" ry="21.429"/>
    <ellipse cx="10.668" cy="-548.37" fill="#fc6843" rx="10.357" ry="18.214"/>
  </g>
  <g transform="matrix(-.61838 1.87919 1.52182 .76359 1558.662 1103.54)">
    <ellipse cx="8.811" cy="-548.73" fill="#fe8c4c" rx="12.857" ry="21.429"/>
    <ellipse cx="10.668" cy="-548.37" fill="#fc6843" rx="10.357" ry="18.214"/>
  </g>
  <g transform="matrix(.2699 1.07459 .8933 -.33048 1479.667 541.15)">
    <ellipse cx="8.811" cy="-548.73" fill="#fe8c4c" rx="12.857" ry="21.429"/>
    <ellipse cx="10.668" cy="-548.37" fill="#fc6843" rx="10.357" ry="18.214"/>
  </g>
  <g transform="matrix(.2699 1.07459 .8933 -.33048 1358.604 776.646)">
    <ellipse cx="8.811" cy="-548.73" fill="#fe8c4c" rx="12.857" ry="21.429"/>
    <ellipse cx="10.668" cy="-548.37" fill="#fc6843" rx="10.357" ry="18.214"/>
  </g>
  <g transform="matrix(.90213 -.15765 -.12174 -1.14164 698.162 -239.513)">
    <ellipse cx="8.811" cy="-548.73" fill="#fe8c4c" rx="12.857" ry="21.429"/>
    <ellipse cx="10.668" cy="-548.37" fill="#fc6843" rx="10.357" ry="18.214"/>
  </g>
  <g transform="matrix(.44114 .98442 .82025 -.54777 1194.224 144.418)">
    <ellipse cx="8.811" cy="-548.73" fill="#fe8c4c" rx="12.857" ry="21.429"/>
    <ellipse cx="10.668" cy="-548.37" fill="#fc6843" rx="10.357" ry="18.214"/>
  </g>
  <g transform="matrix(-.87238 -.32459 -.27763 1.0993 650.722 817.72)">
    <ellipse cx="8.811" cy="-548.73" fill="#fe8c4c" rx="12.857" ry="21.429"/>
    <ellipse cx="10.668" cy="-548.37" fill="#fc6843" rx="10.357" ry="18.214"/>
  </g>
  <g transform="matrix(-.09323 -.59143 -.4911 .112 577.657 220.24)">
    <ellipse cx="8.811" cy="-548.73" fill="#fe8c4c" rx="12.857" ry="21.429"/>
    <ellipse cx="10.668" cy="-548.37" fill="#fc6843" rx="10.357" ry="18.214"/>
  </g>
  <path fill="#fb693e" d="M524.97 355.788c20.056 40.049-2.523 107.829-45.565 140.695-43.042 32.866-87.056 24.823-107.747-14.733-21.6-41.294-6.744-115.302 36.298-148.169 43.042-32.866 96.96-17.84 117.015 22.209z"/>
  <ellipse cx="272.988" cy="584.224" fill="url(#b)" opacity=".102" rx="56.191" ry="70.237" transform="matrix(.90005 -.43578 .30264 .9531 0 0)"/>
  <g fill-rule="evenodd" transform="matrix(1.01877 -.49326 .39946 1.258 -132.76 120.258)">
    <ellipse cx="385.86" cy="404.85" fill="#fff" rx="43.204" ry="46.739"/>
    <ellipse cx="385.38" cy="405.65" rx="24.653" ry="26.67"/>
  </g>
  <path fill="#fb6c3e" d="M545.755 355.423c-20.055 40.049 2.524 107.829 45.566 140.695s87.056 24.823 107.747-14.733c21.6-41.294 6.744-115.302-36.298-148.169-43.042-32.866-96.96-17.84-117.015 22.209z"/>
  <ellipse cx="-758.004" cy="112.446" fill="url(#c)" opacity=".102" rx="56.191" ry="70.237" transform="matrix(-.90005 -.43578 -.30264 .9531 0 0)"/>
  <g fill-rule="evenodd" transform="matrix(-1.01877 -.49326 -.39946 1.258 1203.486 119.893)">
    <ellipse cx="385.86" cy="404.85" fill="#fff" rx="43.204" ry="46.739"/>
    <ellipse cx="385.38" cy="405.65" rx="24.653" ry="26.67"/>
  </g>
</svg>